<svg width="520" height="364" viewBox="0 0 520 364" fill="none" xmlns="http://www.w3.org/2000/svg">
<path d="M40.1807 151.722V159.856H39.2236C34.7575 159.925 31.1572 161.087 28.4229 163.343C25.7113 165.599 24.082 168.732 23.5352 172.742C26.1784 170.053 29.5166 168.709 33.5498 168.709C37.8792 168.709 41.32 170.258 43.8721 173.357C46.4242 176.456 47.7002 180.535 47.7002 185.594C47.7002 188.829 46.9938 191.757 45.5811 194.378C44.1911 196.998 42.2087 199.038 39.6338 200.496C37.0817 201.954 34.1878 202.684 30.9521 202.684C25.7113 202.684 21.473 200.861 18.2373 197.215C15.0244 193.569 13.418 188.704 13.418 182.62V179.065C13.418 173.665 14.432 168.903 16.46 164.778C18.5107 160.631 21.4388 157.43 25.2441 155.174C29.0723 152.895 33.5042 151.744 38.54 151.722H40.1807ZM30.542 176.639C28.9469 176.639 27.5 177.06 26.2012 177.903C24.9023 178.724 23.9453 179.817 23.3301 181.185V184.192C23.3301 187.496 23.9795 190.083 25.2783 191.951C26.5771 193.797 28.4001 194.72 30.7471 194.72C32.8662 194.72 34.5752 193.888 35.874 192.225C37.1956 190.538 37.8564 188.362 37.8564 185.696C37.8564 182.985 37.1956 180.797 35.874 179.134C34.5524 177.47 32.7751 176.639 30.542 176.639ZM87.0752 181.424C87.0752 188.305 85.651 193.569 82.8027 197.215C79.9544 200.861 75.7845 202.684 70.293 202.684C64.8698 202.684 60.7227 200.895 57.8516 197.317C54.9805 193.74 53.5107 188.613 53.4424 181.937V172.776C53.4424 165.826 54.8779 160.551 57.749 156.951C60.6429 153.351 64.8014 151.551 70.2246 151.551C75.6478 151.551 79.7949 153.34 82.666 156.917C85.5371 160.472 87.0068 165.587 87.0752 172.264V181.424ZM77.1973 171.375C77.1973 167.251 76.6276 164.254 75.4883 162.386C74.3717 160.494 72.6172 159.549 70.2246 159.549C67.9004 159.549 66.18 160.449 65.0635 162.249C63.9697 164.026 63.3887 166.818 63.3203 170.623V182.723C63.3203 186.779 63.8672 189.798 64.9609 191.78C66.0775 193.74 67.8548 194.72 70.293 194.72C72.7083 194.72 74.4515 193.774 75.5225 191.883C76.5934 189.992 77.1517 187.098 77.1973 183.201V171.375ZM93.6377 161.805C93.6377 158.751 94.6289 156.279 96.6113 154.388C98.5938 152.474 101.191 151.517 104.404 151.517C107.663 151.517 110.283 152.462 112.266 154.354C114.248 156.222 115.239 158.763 115.239 161.976V164.437C115.239 167.513 114.248 169.985 112.266 171.854C110.283 173.722 107.686 174.656 104.473 174.656C101.237 174.656 98.6165 173.722 96.6113 171.854C94.6289 169.962 93.6377 167.422 93.6377 164.231V161.805ZM100.2 164.437C100.2 165.804 100.588 166.909 101.362 167.752C102.16 168.572 103.197 168.982 104.473 168.982C105.749 168.982 106.763 168.561 107.515 167.718C108.267 166.875 108.643 165.747 108.643 164.334V161.805C108.643 160.438 108.267 159.332 107.515 158.489C106.763 157.646 105.726 157.225 104.404 157.225C103.151 157.225 102.137 157.646 101.362 158.489C100.588 159.31 100.2 160.46 100.2 161.941V164.437ZM117.427 189.798C117.427 186.722 118.429 184.249 120.435 182.381C122.44 180.49 125.037 179.544 128.228 179.544C131.463 179.544 134.072 180.478 136.055 182.347C138.06 184.192 139.062 186.744 139.062 190.003V192.464C139.062 195.517 138.083 197.99 136.123 199.881C134.163 201.749 131.554 202.684 128.296 202.684C125.015 202.684 122.383 201.738 120.4 199.847C118.418 197.955 117.427 195.449 117.427 192.327V189.798ZM123.989 192.464C123.989 193.717 124.399 194.788 125.22 195.677C126.04 196.565 127.065 197.01 128.296 197.01C131.076 197.01 132.466 195.472 132.466 192.396V189.798C132.466 188.431 132.078 187.337 131.304 186.517C130.529 185.674 129.504 185.252 128.228 185.252C126.951 185.252 125.926 185.674 125.151 186.517C124.377 187.337 123.989 188.465 123.989 189.9V192.464ZM106.421 198.274L101.602 195.677L125.903 156.78L130.723 159.378L106.421 198.274Z" fill="#214E41"/>
<path d="M13.939 269.13C13.3843 269.13 12.886 269.035 12.444 268.844C12.002 268.653 11.625 268.398 11.313 268.077C11.0097 267.748 10.7757 267.371 10.611 266.946C10.4463 266.521 10.364 266.075 10.364 265.607C10.364 265.13 10.4463 264.68 10.611 264.255C10.7757 263.83 11.0097 263.458 11.313 263.137C11.625 262.808 12.002 262.548 12.444 262.357C12.886 262.166 13.3843 262.071 13.939 262.071C14.4937 262.071 14.9877 262.166 15.421 262.357C15.863 262.548 16.2357 262.808 16.539 263.137C16.851 263.458 17.0893 263.83 17.254 264.255C17.4187 264.68 17.501 265.13 17.501 265.607C17.501 266.075 17.4187 266.521 17.254 266.946C17.0893 267.371 16.8553 267.748 16.552 268.077C16.2487 268.398 15.876 268.653 15.434 268.844C14.992 269.035 14.4937 269.13 13.939 269.13ZM12.158 265.607C12.158 265.91 12.2013 266.188 12.288 266.439C12.3833 266.682 12.509 266.894 12.665 267.076C12.8297 267.258 13.0203 267.401 13.237 267.505C13.4537 267.6 13.6877 267.648 13.939 267.648C14.1903 267.648 14.4243 267.6 14.641 267.505C14.8577 267.401 15.044 267.258 15.2 267.076C15.3647 266.894 15.4903 266.677 15.577 266.426C15.6723 266.175 15.72 265.897 15.72 265.594C15.72 265.299 15.6723 265.026 15.577 264.775C15.4903 264.524 15.3647 264.307 15.2 264.125C15.044 263.943 14.8577 263.804 14.641 263.709C14.4243 263.605 14.1903 263.553 13.939 263.553C13.6877 263.553 13.4537 263.605 13.237 263.709C13.0203 263.813 12.8297 263.956 12.665 264.138C12.509 264.32 12.3833 264.537 12.288 264.788C12.2013 265.039 12.158 265.312 12.158 265.607ZM19.0112 269V263.878H18.1142V262.552H19.0112V262.136C19.0112 261.287 19.2149 260.615 19.6222 260.121C20.0296 259.627 20.5842 259.38 21.2862 259.38C21.8409 259.38 22.3999 259.514 22.9632 259.783L22.6122 261.096C22.4822 261.027 22.3262 260.97 22.1442 260.927C21.9709 260.875 21.8106 260.849 21.6632 260.849C21.0566 260.849 20.7532 261.256 20.7532 262.071V262.552H22.4172V263.878H20.7532V269H19.0112ZM28.6793 259.77H30.2653L33.7753 269H31.9293L31.0713 266.699H27.8473L27.0023 269H25.1563L28.6793 259.77ZM30.7463 265.438L29.4723 261.811L28.1463 265.438H30.7463ZM45.2206 269H43.4786V265.178C43.4786 264.632 43.3833 264.233 43.1926 263.982C43.0106 263.731 42.755 263.605 42.4256 263.605C42.079 263.605 41.754 263.739 41.4506 264.008C41.1473 264.268 40.9306 264.61 40.8006 265.035V269H39.0586V265.178C39.0586 264.632 38.9633 264.233 38.7726 263.982C38.5906 263.731 38.335 263.605 38.0056 263.605C37.6676 263.605 37.3426 263.735 37.0306 263.995C36.7273 264.255 36.5106 264.597 36.3806 265.022V269H34.6386V262.188H36.2116V263.449C36.463 263.007 36.8053 262.669 37.2386 262.435C37.6806 262.192 38.1833 262.071 38.7466 262.071C39.3186 262.071 39.7606 262.21 40.0726 262.487C40.3846 262.764 40.584 263.107 40.6706 263.514C40.948 263.046 41.299 262.691 41.7236 262.448C42.1483 262.197 42.6336 262.071 43.1796 262.071C43.5956 262.071 43.938 262.149 44.2066 262.305C44.4753 262.461 44.6833 262.665 44.8306 262.916C44.978 263.167 45.0776 263.453 45.1296 263.774C45.1903 264.095 45.2206 264.42 45.2206 264.749V269ZM49.9163 269.13C49.3703 269.13 48.8763 269.039 48.4343 268.857C47.9923 268.666 47.6153 268.411 47.3033 268.09C46.9913 267.769 46.7486 267.397 46.5753 266.972C46.4106 266.547 46.3283 266.101 46.3283 265.633C46.3283 265.148 46.4106 264.693 46.5753 264.268C46.7399 263.835 46.9783 263.458 47.2903 263.137C47.6023 262.808 47.9793 262.548 48.4213 262.357C48.8719 262.166 49.3746 262.071 49.9293 262.071C50.4839 262.071 50.9779 262.166 51.4113 262.357C51.8533 262.548 52.2259 262.803 52.5293 263.124C52.8413 263.445 53.0753 263.817 53.2313 264.242C53.3959 264.667 53.4783 265.109 53.4783 265.568C53.4783 265.681 53.4739 265.789 53.4653 265.893C53.4653 265.997 53.4566 266.084 53.4393 266.153H48.1743C48.2003 266.422 48.2653 266.66 48.3693 266.868C48.4733 267.076 48.6076 267.254 48.7723 267.401C48.9369 267.548 49.1233 267.661 49.3313 267.739C49.5393 267.817 49.7559 267.856 49.9813 267.856C50.3279 267.856 50.6529 267.774 50.9563 267.609C51.2683 267.436 51.4806 267.21 51.5933 266.933L53.0883 267.349C52.8369 267.869 52.4339 268.298 51.8793 268.636C51.3333 268.965 50.6789 269.13 49.9163 269.13ZM51.6843 265.022C51.6409 264.511 51.4503 264.103 51.1123 263.8C50.7829 263.488 50.3799 263.332 49.9033 263.332C49.6693 263.332 49.4483 263.375 49.2403 263.462C49.0409 263.54 48.8633 263.653 48.7073 263.8C48.5513 263.947 48.4213 264.125 48.3173 264.333C48.2219 264.541 48.1656 264.771 48.1483 265.022H51.6843ZM58.6155 263.696C58.0868 263.705 57.6145 263.809 57.1985 264.008C56.7825 264.199 56.4835 264.489 56.3015 264.879V269H54.5595V262.188H56.1585V263.644C56.2798 263.41 56.4228 263.202 56.5875 263.02C56.7522 262.829 56.9298 262.665 57.1205 262.526C57.3112 262.387 57.5018 262.283 57.6925 262.214C57.8918 262.136 58.0825 262.097 58.2645 262.097C58.3598 262.097 58.4292 262.097 58.4725 262.097C58.5245 262.097 58.5722 262.101 58.6155 262.11V263.696ZM59.6068 269V262.188H61.3488V269H59.6068ZM59.6068 261.239V259.51H61.3488V261.239H59.6068ZM62.5113 265.594C62.5113 265.117 62.5936 264.667 62.7583 264.242C62.923 263.817 63.1613 263.445 63.4733 263.124C63.7853 262.803 64.1623 262.548 64.6043 262.357C65.0463 262.166 65.5446 262.071 66.0993 262.071C66.8446 262.071 67.4773 262.231 67.9973 262.552C68.526 262.873 68.9203 263.293 69.1803 263.813L67.4773 264.333C67.33 264.082 67.135 263.891 66.8923 263.761C66.6496 263.622 66.381 263.553 66.0863 263.553C65.835 263.553 65.601 263.605 65.3843 263.709C65.1676 263.804 64.977 263.943 64.8123 264.125C64.6563 264.298 64.5306 264.511 64.4353 264.762C64.3486 265.013 64.3053 265.291 64.3053 265.594C64.3053 265.897 64.353 266.175 64.4483 266.426C64.5436 266.677 64.6693 266.894 64.8253 267.076C64.99 267.258 65.1806 267.401 65.3973 267.505C65.614 267.6 65.8436 267.648 66.0863 267.648C66.3983 267.648 66.6843 267.57 66.9443 267.414C67.213 267.258 67.3993 267.067 67.5033 266.842L69.2063 267.362C68.9723 267.882 68.5866 268.307 68.0493 268.636C67.512 268.965 66.8663 269.13 66.1123 269.13C65.5576 269.13 65.0593 269.035 64.6173 268.844C64.1753 268.653 63.7983 268.398 63.4863 268.077C63.1743 267.748 62.9316 267.371 62.7583 266.946C62.5936 266.513 62.5113 266.062 62.5113 265.594ZM72.1572 269.13C71.8279 269.13 71.5202 269.078 71.2342 268.974C70.9482 268.861 70.7012 268.71 70.4932 268.519C70.2852 268.32 70.1205 268.09 69.9992 267.83C69.8865 267.57 69.8302 267.284 69.8302 266.972C69.8302 266.651 69.8995 266.357 70.0382 266.088C70.1855 265.811 70.3849 265.577 70.6362 265.386C70.8962 265.195 71.2039 265.048 71.5592 264.944C71.9145 264.831 72.3045 264.775 72.7292 264.775C73.0325 264.775 73.3272 264.801 73.6132 264.853C73.9079 264.905 74.1679 264.979 74.3932 265.074V264.684C74.3932 264.233 74.2632 263.887 74.0032 263.644C73.7519 263.401 73.3749 263.28 72.8722 263.28C72.5082 263.28 72.1529 263.345 71.8062 263.475C71.4595 263.605 71.1042 263.796 70.7402 264.047L70.2072 262.942C71.0825 262.361 72.0272 262.071 73.0412 262.071C74.0205 262.071 74.7789 262.314 75.3162 262.799C75.8622 263.276 76.1352 263.969 76.1352 264.879V266.998C76.1352 267.18 76.1655 267.31 76.2262 267.388C76.2955 267.466 76.4039 267.509 76.5512 267.518V269C76.2565 269.061 76.0009 269.091 75.7842 269.091C75.4549 269.091 75.1992 269.017 75.0172 268.87C74.8439 268.723 74.7355 268.528 74.6922 268.285L74.6532 267.908C74.3499 268.307 73.9815 268.61 73.5482 268.818C73.1149 269.026 72.6512 269.13 72.1572 269.13ZM72.6512 267.856C72.9459 267.856 73.2232 267.804 73.4832 267.7C73.7519 267.596 73.9599 267.457 74.1072 267.284C74.2979 267.137 74.3932 266.972 74.3932 266.79V266.01C74.1852 265.932 73.9599 265.871 73.7172 265.828C73.4745 265.776 73.2405 265.75 73.0152 265.75C72.5645 265.75 72.1962 265.854 71.9102 266.062C71.6242 266.261 71.4812 266.517 71.4812 266.829C71.4812 267.124 71.5939 267.371 71.8192 267.57C72.0445 267.761 72.3219 267.856 72.6512 267.856ZM84.114 269H82.372V265.178C82.372 264.632 82.2767 264.233 82.086 263.982C81.8954 263.731 81.631 263.605 81.293 263.605C81.1197 263.605 80.942 263.64 80.76 263.709C80.578 263.778 80.4047 263.878 80.24 264.008C80.084 264.129 79.941 264.277 79.811 264.45C79.681 264.623 79.5857 264.814 79.525 265.022V269H77.783V262.188H79.356V263.449C79.6074 263.016 79.9714 262.678 80.448 262.435C80.9247 262.192 81.462 262.071 82.06 262.071C82.4847 262.071 82.8314 262.149 83.1 262.305C83.3687 262.461 83.5767 262.665 83.724 262.916C83.8714 263.167 83.971 263.453 84.023 263.774C84.0837 264.095 84.114 264.42 84.114 264.749V269ZM88.2227 269.13C87.6507 269.13 87.0917 269.039 86.5457 268.857C85.9997 268.675 85.5317 268.415 85.1417 268.077L85.7917 266.985C86.2077 267.28 86.6107 267.505 87.0007 267.661C87.3994 267.808 87.7937 267.882 88.1837 267.882C88.5304 267.882 88.8034 267.817 89.0027 267.687C89.2021 267.557 89.3017 267.371 89.3017 267.128C89.3017 266.885 89.1847 266.708 88.9507 266.595C88.7167 266.482 88.3354 266.352 87.8067 266.205C87.3647 266.084 86.9877 265.967 86.6757 265.854C86.3637 265.741 86.1124 265.616 85.9217 265.477C85.7311 265.33 85.5924 265.165 85.5057 264.983C85.4191 264.792 85.3757 264.567 85.3757 264.307C85.3757 263.96 85.4407 263.648 85.5707 263.371C85.7094 263.094 85.9001 262.86 86.1427 262.669C86.3854 262.47 86.6671 262.318 86.9877 262.214C87.3171 262.11 87.6724 262.058 88.0537 262.058C88.5651 262.058 89.0417 262.132 89.4837 262.279C89.9344 262.426 90.3461 262.665 90.7187 262.994L90.0167 264.047C89.6701 263.787 89.3321 263.596 89.0027 263.475C88.6821 263.354 88.3614 263.293 88.0407 263.293C87.7461 263.293 87.4991 263.354 87.2997 263.475C87.1004 263.596 87.0007 263.791 87.0007 264.06C87.0007 264.181 87.0224 264.281 87.0657 264.359C87.1177 264.437 87.1957 264.506 87.2997 264.567C87.4037 264.628 87.5381 264.688 87.7027 264.749C87.8761 264.801 88.0884 264.857 88.3397 264.918C88.8077 265.039 89.2064 265.161 89.5357 265.282C89.8737 265.403 90.1467 265.542 90.3547 265.698C90.5714 265.854 90.7274 266.036 90.8227 266.244C90.9267 266.443 90.9787 266.686 90.9787 266.972C90.9787 267.639 90.7317 268.168 90.2377 268.558C89.7437 268.939 89.0721 269.13 88.2227 269.13Z" fill="#214E41"/>
<path d="M107.243 262.188H108.894L106.047 269H104.617L103.447 266.01L102.29 269H100.86L98.026 262.188H99.664L101.692 267.362L102.524 265.152L101.328 262.201H102.732L103.447 264.294L104.175 262.201H105.579L104.396 265.152L105.215 267.362L107.243 262.188ZM112.623 269.13C112.068 269.13 111.57 269.035 111.128 268.844C110.686 268.653 110.309 268.398 109.997 268.077C109.694 267.748 109.46 267.371 109.295 266.946C109.13 266.521 109.048 266.075 109.048 265.607C109.048 265.13 109.13 264.68 109.295 264.255C109.46 263.83 109.694 263.458 109.997 263.137C110.309 262.808 110.686 262.548 111.128 262.357C111.57 262.166 112.068 262.071 112.623 262.071C113.178 262.071 113.672 262.166 114.105 262.357C114.547 262.548 114.92 262.808 115.223 263.137C115.535 263.458 115.773 263.83 115.938 264.255C116.103 264.68 116.185 265.13 116.185 265.607C116.185 266.075 116.103 266.521 115.938 266.946C115.773 267.371 115.539 267.748 115.236 268.077C114.933 268.398 114.56 268.653 114.118 268.844C113.676 269.035 113.178 269.13 112.623 269.13ZM110.842 265.607C110.842 265.91 110.885 266.188 110.972 266.439C111.067 266.682 111.193 266.894 111.349 267.076C111.514 267.258 111.704 267.401 111.921 267.505C112.138 267.6 112.372 267.648 112.623 267.648C112.874 267.648 113.108 267.6 113.325 267.505C113.542 267.401 113.728 267.258 113.884 267.076C114.049 266.894 114.174 266.677 114.261 266.426C114.356 266.175 114.404 265.897 114.404 265.594C114.404 265.299 114.356 265.026 114.261 264.775C114.174 264.524 114.049 264.307 113.884 264.125C113.728 263.943 113.542 263.804 113.325 263.709C113.108 263.605 112.874 263.553 112.623 263.553C112.372 263.553 112.138 263.605 111.921 263.709C111.704 263.813 111.514 263.956 111.349 264.138C111.193 264.32 111.067 264.537 110.972 264.788C110.885 265.039 110.842 265.312 110.842 265.607ZM119.461 269.13C118.759 269.13 118.226 268.905 117.862 268.454C117.498 268.003 117.316 267.336 117.316 266.452V262.188H119.058V266.075C119.058 267.124 119.435 267.648 120.189 267.648C120.527 267.648 120.852 267.548 121.164 267.349C121.485 267.141 121.745 266.829 121.944 266.413V262.188H123.686V266.998C123.686 267.18 123.716 267.31 123.777 267.388C123.846 267.466 123.955 267.509 124.102 267.518V269C123.929 269.035 123.781 269.056 123.66 269.065C123.547 269.074 123.443 269.078 123.348 269.078C123.036 269.078 122.78 269.009 122.581 268.87C122.39 268.723 122.278 268.523 122.243 268.272L122.204 267.726C121.901 268.194 121.511 268.545 121.034 268.779C120.557 269.013 120.033 269.13 119.461 269.13ZM125.424 259.51H127.166V266.816C127.166 267.067 127.227 267.262 127.348 267.401C127.469 267.54 127.643 267.609 127.868 267.609C127.972 267.609 128.085 267.592 128.206 267.557C128.336 267.522 128.457 267.479 128.57 267.427L128.804 268.753C128.57 268.866 128.297 268.952 127.985 269.013C127.673 269.074 127.391 269.104 127.14 269.104C126.594 269.104 126.169 268.961 125.866 268.675C125.571 268.38 125.424 267.964 125.424 267.427V259.51ZM132.404 269.13C131.936 269.13 131.503 269.039 131.104 268.857C130.705 268.675 130.363 268.424 130.077 268.103C129.791 267.782 129.566 267.41 129.401 266.985C129.245 266.552 129.167 266.088 129.167 265.594C129.167 265.1 129.241 264.641 129.388 264.216C129.544 263.791 129.756 263.419 130.025 263.098C130.294 262.777 130.614 262.526 130.987 262.344C131.36 262.162 131.767 262.071 132.209 262.071C132.712 262.071 133.162 262.192 133.561 262.435C133.968 262.678 134.285 262.994 134.51 263.384V259.51H136.252V266.998C136.252 267.18 136.282 267.31 136.343 267.388C136.404 267.466 136.508 267.509 136.655 267.518V269C136.352 269.061 136.105 269.091 135.914 269.091C135.602 269.091 135.346 269.013 135.147 268.857C134.948 268.701 134.835 268.497 134.809 268.246L134.77 267.817C134.519 268.25 134.176 268.58 133.743 268.805C133.318 269.022 132.872 269.13 132.404 269.13ZM132.859 267.648C133.024 267.648 133.193 267.622 133.366 267.57C133.539 267.509 133.7 267.427 133.847 267.323C133.994 267.219 134.124 267.098 134.237 266.959C134.358 266.82 134.449 266.669 134.51 266.504V264.879C134.441 264.688 134.341 264.515 134.211 264.359C134.09 264.194 133.947 264.056 133.782 263.943C133.626 263.822 133.457 263.726 133.275 263.657C133.102 263.588 132.928 263.553 132.755 263.553C132.495 263.553 132.252 263.609 132.027 263.722C131.81 263.835 131.624 263.991 131.468 264.19C131.312 264.381 131.191 264.602 131.104 264.853C131.017 265.104 130.974 265.364 130.974 265.633C130.974 265.919 131.022 266.183 131.117 266.426C131.212 266.669 131.342 266.881 131.507 267.063C131.672 267.245 131.867 267.388 132.092 267.492C132.326 267.596 132.582 267.648 132.859 267.648ZM147.456 269H145.714V265.178C145.714 264.641 145.614 264.246 145.415 263.995C145.216 263.735 144.934 263.605 144.57 263.605C144.414 263.605 144.249 263.64 144.076 263.709C143.903 263.778 143.738 263.878 143.582 264.008C143.426 264.129 143.283 264.277 143.153 264.45C143.023 264.623 142.928 264.814 142.867 265.022V269H141.125V259.51H142.867V263.449C143.118 263.007 143.456 262.669 143.881 262.435C144.314 262.192 144.791 262.071 145.311 262.071C145.753 262.071 146.113 262.149 146.39 262.305C146.667 262.452 146.884 262.652 147.04 262.903C147.196 263.154 147.304 263.44 147.365 263.761C147.426 264.082 147.456 264.411 147.456 264.749V269ZM150.85 269.13C150.52 269.13 150.213 269.078 149.927 268.974C149.641 268.861 149.394 268.71 149.186 268.519C148.978 268.32 148.813 268.09 148.692 267.83C148.579 267.57 148.523 267.284 148.523 266.972C148.523 266.651 148.592 266.357 148.731 266.088C148.878 265.811 149.077 265.577 149.329 265.386C149.589 265.195 149.896 265.048 150.252 264.944C150.607 264.831 150.997 264.775 151.422 264.775C151.725 264.775 152.02 264.801 152.306 264.853C152.6 264.905 152.86 264.979 153.086 265.074V264.684C153.086 264.233 152.956 263.887 152.696 263.644C152.444 263.401 152.067 263.28 151.565 263.28C151.201 263.28 150.845 263.345 150.499 263.475C150.152 263.605 149.797 263.796 149.433 264.047L148.9 262.942C149.775 262.361 150.72 262.071 151.734 262.071C152.713 262.071 153.471 262.314 154.009 262.799C154.555 263.276 154.828 263.969 154.828 264.879V266.998C154.828 267.18 154.858 267.31 154.919 267.388C154.988 267.466 155.096 267.509 155.244 267.518V269C154.949 269.061 154.693 269.091 154.477 269.091C154.147 269.091 153.892 269.017 153.71 268.87C153.536 268.723 153.428 268.528 153.385 268.285L153.346 267.908C153.042 268.307 152.674 268.61 152.241 268.818C151.807 269.026 151.344 269.13 150.85 269.13ZM151.344 267.856C151.638 267.856 151.916 267.804 152.176 267.7C152.444 267.596 152.652 267.457 152.8 267.284C152.99 267.137 153.086 266.972 153.086 266.79V266.01C152.878 265.932 152.652 265.871 152.41 265.828C152.167 265.776 151.933 265.75 151.708 265.75C151.257 265.75 150.889 265.854 150.603 266.062C150.317 266.261 150.174 266.517 150.174 266.829C150.174 267.124 150.286 267.371 150.512 267.57C150.737 267.761 151.014 267.856 151.344 267.856ZM158.131 269L155.622 262.188H157.416L159.145 267.583L160.887 262.188H162.525L160.016 269H158.131ZM166.383 269.13C165.837 269.13 165.343 269.039 164.901 268.857C164.459 268.666 164.082 268.411 163.77 268.09C163.458 267.769 163.215 267.397 163.042 266.972C162.877 266.547 162.795 266.101 162.795 265.633C162.795 265.148 162.877 264.693 163.042 264.268C163.207 263.835 163.445 263.458 163.757 263.137C164.069 262.808 164.446 262.548 164.888 262.357C165.339 262.166 165.841 262.071 166.396 262.071C166.951 262.071 167.445 262.166 167.878 262.357C168.32 262.548 168.693 262.803 168.996 263.124C169.308 263.445 169.542 263.817 169.698 264.242C169.863 264.667 169.945 265.109 169.945 265.568C169.945 265.681 169.941 265.789 169.932 265.893C169.932 265.997 169.923 266.084 169.906 266.153H164.641C164.667 266.422 164.732 266.66 164.836 266.868C164.94 267.076 165.074 267.254 165.239 267.401C165.404 267.548 165.59 267.661 165.798 267.739C166.006 267.817 166.223 267.856 166.448 267.856C166.795 267.856 167.12 267.774 167.423 267.609C167.735 267.436 167.947 267.21 168.06 266.933L169.555 267.349C169.304 267.869 168.901 268.298 168.346 268.636C167.8 268.965 167.146 269.13 166.383 269.13ZM168.151 265.022C168.108 264.511 167.917 264.103 167.579 263.8C167.25 263.488 166.847 263.332 166.37 263.332C166.136 263.332 165.915 263.375 165.707 263.462C165.508 263.54 165.33 263.653 165.174 263.8C165.018 263.947 164.888 264.125 164.784 264.333C164.689 264.541 164.632 264.771 164.615 265.022H168.151ZM178.251 268.649C178.017 268.753 177.731 268.857 177.393 268.961C177.055 269.065 176.7 269.117 176.327 269.117C176.085 269.117 175.855 269.087 175.638 269.026C175.43 268.965 175.244 268.87 175.079 268.74C174.923 268.601 174.798 268.428 174.702 268.22C174.607 268.003 174.559 267.743 174.559 267.44V263.527H173.662V262.188H174.559V259.978H176.301V262.188H177.731V263.527H176.301V266.855C176.301 267.098 176.362 267.271 176.483 267.375C176.613 267.47 176.769 267.518 176.951 267.518C177.133 267.518 177.311 267.488 177.484 267.427C177.658 267.366 177.796 267.314 177.9 267.271L178.251 268.649ZM182.159 269.13C181.605 269.13 181.106 269.035 180.664 268.844C180.222 268.653 179.845 268.398 179.533 268.077C179.23 267.748 178.996 267.371 178.831 266.946C178.667 266.521 178.584 266.075 178.584 265.607C178.584 265.13 178.667 264.68 178.831 264.255C178.996 263.83 179.23 263.458 179.533 263.137C179.845 262.808 180.222 262.548 180.664 262.357C181.106 262.166 181.605 262.071 182.159 262.071C182.714 262.071 183.208 262.166 183.641 262.357C184.083 262.548 184.456 262.808 184.759 263.137C185.071 263.458 185.31 263.83 185.474 264.255C185.639 264.68 185.721 265.13 185.721 265.607C185.721 266.075 185.639 266.521 185.474 266.946C185.31 267.371 185.076 267.748 184.772 268.077C184.469 268.398 184.096 268.653 183.654 268.844C183.212 269.035 182.714 269.13 182.159 269.13ZM180.378 265.607C180.378 265.91 180.422 266.188 180.508 266.439C180.604 266.682 180.729 266.894 180.885 267.076C181.05 267.258 181.241 267.401 181.457 267.505C181.674 267.6 181.908 267.648 182.159 267.648C182.411 267.648 182.645 267.6 182.861 267.505C183.078 267.401 183.264 267.258 183.42 267.076C183.585 266.894 183.711 266.677 183.797 266.426C183.893 266.175 183.94 265.897 183.94 265.594C183.94 265.299 183.893 265.026 183.797 264.775C183.711 264.524 183.585 264.307 183.42 264.125C183.264 263.943 183.078 263.804 182.861 263.709C182.645 263.605 182.411 263.553 182.159 263.553C181.908 263.553 181.674 263.605 181.457 263.709C181.241 263.813 181.05 263.956 180.885 264.138C180.729 264.32 180.604 264.537 180.508 264.788C180.422 265.039 180.378 265.312 180.378 265.607ZM193.934 269.13C193.414 269.13 192.951 269.013 192.543 268.779C192.136 268.545 191.815 268.224 191.581 267.817V269H190.06V259.51H191.802V263.384C192.045 262.968 192.361 262.647 192.751 262.422C193.15 262.188 193.614 262.071 194.142 262.071C194.584 262.071 194.987 262.166 195.351 262.357C195.715 262.548 196.027 262.803 196.287 263.124C196.556 263.445 196.76 263.822 196.898 264.255C197.046 264.688 197.119 265.143 197.119 265.62C197.119 266.114 197.037 266.573 196.872 266.998C196.716 267.423 196.495 267.795 196.209 268.116C195.923 268.428 195.585 268.675 195.195 268.857C194.805 269.039 194.385 269.13 193.934 269.13ZM193.453 267.648C193.731 267.648 193.986 267.596 194.22 267.492C194.454 267.379 194.654 267.232 194.818 267.05C194.983 266.868 195.109 266.656 195.195 266.413C195.291 266.17 195.338 265.91 195.338 265.633C195.338 265.356 195.295 265.091 195.208 264.84C195.122 264.589 194.996 264.368 194.831 264.177C194.675 263.986 194.489 263.835 194.272 263.722C194.056 263.609 193.817 263.553 193.557 263.553C193.167 263.553 192.816 263.683 192.504 263.943C192.201 264.194 191.967 264.506 191.802 264.879V266.504C191.863 266.677 191.95 266.833 192.062 266.972C192.184 267.111 192.318 267.232 192.465 267.336C192.613 267.431 192.773 267.509 192.946 267.57C193.12 267.622 193.289 267.648 193.453 267.648ZM201.466 269.13C200.911 269.13 200.413 269.035 199.971 268.844C199.529 268.653 199.152 268.398 198.84 268.077C198.536 267.748 198.302 267.371 198.138 266.946C197.973 266.521 197.891 266.075 197.891 265.607C197.891 265.13 197.973 264.68 198.138 264.255C198.302 263.83 198.536 263.458 198.84 263.137C199.152 262.808 199.529 262.548 199.971 262.357C200.413 262.166 200.911 262.071 201.466 262.071C202.02 262.071 202.514 262.166 202.948 262.357C203.39 262.548 203.762 262.808 204.066 263.137C204.378 263.458 204.616 263.83 204.781 264.255C204.945 264.68 205.028 265.13 205.028 265.607C205.028 266.075 204.945 266.521 204.781 266.946C204.616 267.371 204.382 267.748 204.079 268.077C203.775 268.398 203.403 268.653 202.961 268.844C202.519 269.035 202.02 269.13 201.466 269.13ZM199.685 265.607C199.685 265.91 199.728 266.188 199.815 266.439C199.91 266.682 200.036 266.894 200.192 267.076C200.356 267.258 200.547 267.401 200.764 267.505C200.98 267.6 201.214 267.648 201.466 267.648C201.717 267.648 201.951 267.6 202.168 267.505C202.384 267.401 202.571 267.258 202.727 267.076C202.891 266.894 203.017 266.677 203.104 266.426C203.199 266.175 203.247 265.897 203.247 265.594C203.247 265.299 203.199 265.026 203.104 264.775C203.017 264.524 202.891 264.307 202.727 264.125C202.571 263.943 202.384 263.804 202.168 263.709C201.951 263.605 201.717 263.553 201.466 263.553C201.214 263.553 200.98 263.605 200.764 263.709C200.547 263.813 200.356 263.956 200.192 264.138C200.036 264.32 199.91 264.537 199.815 264.788C199.728 265.039 199.685 265.312 199.685 265.607ZM210.279 263.696C209.751 263.705 209.278 263.809 208.862 264.008C208.446 264.199 208.147 264.489 207.965 264.879V269H206.223V262.188H207.822V263.644C207.944 263.41 208.087 263.202 208.251 263.02C208.416 262.829 208.594 262.665 208.784 262.526C208.975 262.387 209.166 262.283 209.356 262.214C209.556 262.136 209.746 262.097 209.928 262.097C210.024 262.097 210.093 262.097 210.136 262.097C210.188 262.097 210.236 262.101 210.279 262.11V263.696ZM215.327 263.696C214.798 263.705 214.326 263.809 213.91 264.008C213.494 264.199 213.195 264.489 213.013 264.879V269H211.271V262.188H212.87V263.644C212.991 263.41 213.134 263.202 213.299 263.02C213.463 262.829 213.641 262.665 213.832 262.526C214.022 262.387 214.213 262.283 214.404 262.214C214.603 262.136 214.794 262.097 214.976 262.097C215.071 262.097 215.14 262.097 215.184 262.097C215.236 262.097 215.283 262.101 215.327 262.11V263.696ZM219.121 269.13C218.567 269.13 218.068 269.035 217.626 268.844C217.184 268.653 216.807 268.398 216.495 268.077C216.192 267.748 215.958 267.371 215.793 266.946C215.629 266.521 215.546 266.075 215.546 265.607C215.546 265.13 215.629 264.68 215.793 264.255C215.958 263.83 216.192 263.458 216.495 263.137C216.807 262.808 217.184 262.548 217.626 262.357C218.068 262.166 218.567 262.071 219.121 262.071C219.676 262.071 220.17 262.166 220.603 262.357C221.045 262.548 221.418 262.808 221.721 263.137C222.033 263.458 222.272 263.83 222.436 264.255C222.601 264.68 222.683 265.13 222.683 265.607C222.683 266.075 222.601 266.521 222.436 266.946C222.272 267.371 222.038 267.748 221.734 268.077C221.431 268.398 221.058 268.653 220.616 268.844C220.174 269.035 219.676 269.13 219.121 269.13ZM217.34 265.607C217.34 265.91 217.384 266.188 217.47 266.439C217.566 266.682 217.691 266.894 217.847 267.076C218.012 267.258 218.203 267.401 218.419 267.505C218.636 267.6 218.87 267.648 219.121 267.648C219.373 267.648 219.607 267.6 219.823 267.505C220.04 267.401 220.226 267.258 220.382 267.076C220.547 266.894 220.673 266.677 220.759 266.426C220.855 266.175 220.902 265.897 220.902 265.594C220.902 265.299 220.855 265.026 220.759 264.775C220.673 264.524 220.547 264.307 220.382 264.125C220.226 263.943 220.04 263.804 219.823 263.709C219.607 263.605 219.373 263.553 219.121 263.553C218.87 263.553 218.636 263.605 218.419 263.709C218.203 263.813 218.012 263.956 217.847 264.138C217.691 264.32 217.566 264.537 217.47 264.788C217.384 265.039 217.34 265.312 217.34 265.607ZM232.088 262.188H233.739L230.892 269H229.462L228.292 266.01L227.135 269H225.705L222.871 262.188H224.509L226.537 267.362L227.369 265.152L226.173 262.201H227.577L228.292 264.294L229.02 262.201H230.424L229.241 265.152L230.06 267.362L232.088 262.188Z" fill="#214E41"/>
<path d="M98 270.3H233.752V270.95H98V270.3Z" fill="#214E41"/>
<path d="M14.875 293.649C14.641 293.753 14.355 293.857 14.017 293.961C13.679 294.065 13.3237 294.117 12.951 294.117C12.7083 294.117 12.4787 294.087 12.262 294.026C12.054 293.965 11.8677 293.87 11.703 293.74C11.547 293.601 11.4213 293.428 11.326 293.22C11.2307 293.003 11.183 292.743 11.183 292.44V288.527H10.286V287.188H11.183V284.978H12.925V287.188H14.355V288.527H12.925V291.855C12.925 292.098 12.9857 292.271 13.107 292.375C13.237 292.47 13.393 292.518 13.575 292.518C13.757 292.518 13.9347 292.488 14.108 292.427C14.2813 292.366 14.42 292.314 14.524 292.271L14.875 293.649ZM18.7832 294.13C18.2286 294.13 17.7302 294.035 17.2882 293.844C16.8462 293.653 16.4692 293.398 16.1572 293.077C15.8539 292.748 15.6199 292.371 15.4552 291.946C15.2906 291.521 15.2082 291.075 15.2082 290.607C15.2082 290.13 15.2906 289.68 15.4552 289.255C15.6199 288.83 15.8539 288.458 16.1572 288.137C16.4692 287.808 16.8462 287.548 17.2882 287.357C17.7302 287.166 18.2286 287.071 18.7832 287.071C19.3379 287.071 19.8319 287.166 20.2652 287.357C20.7072 287.548 21.0799 287.808 21.3832 288.137C21.6952 288.458 21.9336 288.83 22.0982 289.255C22.2629 289.68 22.3452 290.13 22.3452 290.607C22.3452 291.075 22.2629 291.521 22.0982 291.946C21.9336 292.371 21.6996 292.748 21.3962 293.077C21.0929 293.398 20.7202 293.653 20.2782 293.844C19.8362 294.035 19.3379 294.13 18.7832 294.13ZM17.0022 290.607C17.0022 290.91 17.0456 291.188 17.1322 291.439C17.2276 291.682 17.3532 291.894 17.5092 292.076C17.6739 292.258 17.8646 292.401 18.0812 292.505C18.2979 292.6 18.5319 292.648 18.7832 292.648C19.0346 292.648 19.2686 292.6 19.4852 292.505C19.7019 292.401 19.8882 292.258 20.0442 292.076C20.2089 291.894 20.3346 291.677 20.4212 291.426C20.5166 291.175 20.5642 290.897 20.5642 290.594C20.5642 290.299 20.5166 290.026 20.4212 289.775C20.3346 289.524 20.2089 289.307 20.0442 289.125C19.8882 288.943 19.7019 288.804 19.4852 288.709C19.2686 288.605 19.0346 288.553 18.7832 288.553C18.5319 288.553 18.2979 288.605 18.0812 288.709C17.8646 288.813 17.6739 288.956 17.5092 289.138C17.3532 289.32 17.2276 289.537 17.1322 289.788C17.0456 290.039 17.0022 290.312 17.0022 290.607ZM26.2551 290.594C26.2551 290.117 26.3374 289.667 26.5021 289.242C26.6667 288.817 26.9051 288.445 27.2171 288.124C27.5291 287.803 27.9061 287.548 28.3481 287.357C28.7901 287.166 29.2884 287.071 29.8431 287.071C30.5884 287.071 31.2211 287.231 31.7411 287.552C32.2697 287.873 32.6641 288.293 32.9241 288.813L31.2211 289.333C31.0737 289.082 30.8787 288.891 30.6361 288.761C30.3934 288.622 30.1247 288.553 29.8301 288.553C29.5787 288.553 29.3447 288.605 29.1281 288.709C28.9114 288.804 28.7207 288.943 28.5561 289.125C28.4001 289.298 28.2744 289.511 28.1791 289.762C28.0924 290.013 28.0491 290.291 28.0491 290.594C28.0491 290.897 28.0967 291.175 28.1921 291.426C28.2874 291.677 28.4131 291.894 28.5691 292.076C28.7337 292.258 28.9244 292.401 29.1411 292.505C29.3577 292.6 29.5874 292.648 29.8301 292.648C30.1421 292.648 30.4281 292.57 30.6881 292.414C30.9567 292.258 31.1431 292.067 31.2471 291.842L32.9501 292.362C32.7161 292.882 32.3304 293.307 31.7931 293.636C31.2557 293.965 30.6101 294.13 29.8561 294.13C29.3014 294.13 28.8031 294.035 28.3611 293.844C27.9191 293.653 27.5421 293.398 27.2301 293.077C26.9181 292.748 26.6754 292.371 26.5021 291.946C26.3374 291.513 26.2551 291.062 26.2551 290.594ZM37.1245 294.13C36.5698 294.13 36.0715 294.035 35.6295 293.844C35.1875 293.653 34.8105 293.398 34.4985 293.077C34.1951 292.748 33.9611 292.371 33.7965 291.946C33.6318 291.521 33.5495 291.075 33.5495 290.607C33.5495 290.13 33.6318 289.68 33.7965 289.255C33.9611 288.83 34.1951 288.458 34.4985 288.137C34.8105 287.808 35.1875 287.548 35.6295 287.357C36.0715 287.166 36.5698 287.071 37.1245 287.071C37.6791 287.071 38.1731 287.166 38.6065 287.357C39.0485 287.548 39.4211 287.808 39.7245 288.137C40.0365 288.458 40.2748 288.83 40.4395 289.255C40.6041 289.68 40.6865 290.13 40.6865 290.607C40.6865 291.075 40.6041 291.521 40.4395 291.946C40.2748 292.371 40.0408 292.748 39.7375 293.077C39.4341 293.398 39.0615 293.653 38.6195 293.844C38.1775 294.035 37.6791 294.13 37.1245 294.13ZM35.3435 290.607C35.3435 290.91 35.3868 291.188 35.4735 291.439C35.5688 291.682 35.6945 291.894 35.8505 292.076C36.0151 292.258 36.2058 292.401 36.4225 292.505C36.6391 292.6 36.8731 292.648 37.1245 292.648C37.3758 292.648 37.6098 292.6 37.8265 292.505C38.0431 292.401 38.2295 292.258 38.3855 292.076C38.5501 291.894 38.6758 291.677 38.7625 291.426C38.8578 291.175 38.9055 290.897 38.9055 290.594C38.9055 290.299 38.8578 290.026 38.7625 289.775C38.6758 289.524 38.5501 289.307 38.3855 289.125C38.2295 288.943 38.0431 288.804 37.8265 288.709C37.6098 288.605 37.3758 288.553 37.1245 288.553C36.8731 288.553 36.6391 288.605 36.4225 288.709C36.2058 288.813 36.0151 288.956 35.8505 289.138C35.6945 289.32 35.5688 289.537 35.4735 289.788C35.3868 290.039 35.3435 290.312 35.3435 290.607ZM43.474 294L40.965 287.188H42.759L44.488 292.583L46.23 287.188H47.868L45.359 294H43.474ZM51.7263 294.13C51.1803 294.13 50.6863 294.039 50.2443 293.857C49.8023 293.666 49.4253 293.411 49.1133 293.09C48.8013 292.769 48.5586 292.397 48.3853 291.972C48.2206 291.547 48.1383 291.101 48.1383 290.633C48.1383 290.148 48.2206 289.693 48.3853 289.268C48.55 288.835 48.7883 288.458 49.1003 288.137C49.4123 287.808 49.7893 287.548 50.2313 287.357C50.682 287.166 51.1846 287.071 51.7393 287.071C52.294 287.071 52.788 287.166 53.2213 287.357C53.6633 287.548 54.036 287.803 54.3393 288.124C54.6513 288.445 54.8853 288.817 55.0413 289.242C55.206 289.667 55.2883 290.109 55.2883 290.568C55.2883 290.681 55.284 290.789 55.2753 290.893C55.2753 290.997 55.2666 291.084 55.2493 291.153H49.9843C50.0103 291.422 50.0753 291.66 50.1793 291.868C50.2833 292.076 50.4176 292.254 50.5823 292.401C50.747 292.548 50.9333 292.661 51.1413 292.739C51.3493 292.817 51.566 292.856 51.7913 292.856C52.138 292.856 52.463 292.774 52.7663 292.609C53.0783 292.436 53.2906 292.21 53.4033 291.933L54.8983 292.349C54.647 292.869 54.244 293.298 53.6893 293.636C53.1433 293.965 52.489 294.13 51.7263 294.13ZM53.4943 290.022C53.451 289.511 53.2603 289.103 52.9223 288.8C52.593 288.488 52.19 288.332 51.7133 288.332C51.4793 288.332 51.2583 288.375 51.0503 288.462C50.851 288.54 50.6733 288.653 50.5173 288.8C50.3613 288.947 50.2313 289.125 50.1273 289.333C50.032 289.541 49.9756 289.771 49.9583 290.022H53.4943ZM60.4255 288.696C59.8969 288.705 59.4245 288.809 59.0085 289.008C58.5925 289.199 58.2935 289.489 58.1115 289.879V294H56.3695V287.188H57.9685V288.644C58.0899 288.41 58.2329 288.202 58.3975 288.02C58.5622 287.829 58.7399 287.665 58.9305 287.526C59.1212 287.387 59.3119 287.283 59.5025 287.214C59.7019 287.136 59.8925 287.097 60.0745 287.097C60.1699 287.097 60.2392 287.097 60.2825 287.097C60.3345 287.097 60.3822 287.101 60.4255 287.11V288.696ZM66.1015 294.13C65.7722 294.13 65.4645 294.078 65.1785 293.974C64.8925 293.861 64.6455 293.71 64.4375 293.519C64.2295 293.32 64.0649 293.09 63.9435 292.83C63.8309 292.57 63.7745 292.284 63.7745 291.972C63.7745 291.651 63.8439 291.357 63.9825 291.088C64.1299 290.811 64.3292 290.577 64.5805 290.386C64.8405 290.195 65.1482 290.048 65.5035 289.944C65.8589 289.831 66.2489 289.775 66.6735 289.775C66.9769 289.775 67.2715 289.801 67.5575 289.853C67.8522 289.905 68.1122 289.979 68.3375 290.074V289.684C68.3375 289.233 68.2075 288.887 67.9475 288.644C67.6962 288.401 67.3192 288.28 66.8165 288.28C66.4525 288.28 66.0972 288.345 65.7505 288.475C65.4039 288.605 65.0485 288.796 64.6845 289.047L64.1515 287.942C65.0269 287.361 65.9715 287.071 66.9855 287.071C67.9649 287.071 68.7232 287.314 69.2605 287.799C69.8065 288.276 70.0795 288.969 70.0795 289.879V291.998C70.0795 292.18 70.1099 292.31 70.1705 292.388C70.2399 292.466 70.3482 292.509 70.4955 292.518V294C70.2009 294.061 69.9452 294.091 69.7285 294.091C69.3992 294.091 69.1435 294.017 68.9615 293.87C68.7882 293.723 68.6799 293.528 68.6365 293.285L68.5975 292.908C68.2942 293.307 67.9259 293.61 67.4925 293.818C67.0592 294.026 66.5955 294.13 66.1015 294.13ZM66.5955 292.856C66.8902 292.856 67.1675 292.804 67.4275 292.7C67.6962 292.596 67.9042 292.457 68.0515 292.284C68.2422 292.137 68.3375 291.972 68.3375 291.79V291.01C68.1295 290.932 67.9042 290.871 67.6615 290.828C67.4189 290.776 67.1849 290.75 66.9595 290.75C66.5089 290.75 66.1405 290.854 65.8545 291.062C65.5685 291.261 65.4255 291.517 65.4255 291.829C65.4255 292.124 65.5382 292.371 65.7635 292.57C65.9889 292.761 66.2662 292.856 66.5955 292.856ZM78.0584 294H76.3164V290.178C76.3164 289.632 76.221 289.233 76.0304 288.982C75.8397 288.731 75.5754 288.605 75.2374 288.605C75.064 288.605 74.8864 288.64 74.7044 288.709C74.5224 288.778 74.349 288.878 74.1844 289.008C74.0284 289.129 73.8854 289.277 73.7554 289.45C73.6254 289.623 73.53 289.814 73.4694 290.022V294H71.7274V287.188H73.3004V288.449C73.5517 288.016 73.9157 287.678 74.3924 287.435C74.869 287.192 75.4064 287.071 76.0044 287.071C76.429 287.071 76.7757 287.149 77.0444 287.305C77.313 287.461 77.521 287.665 77.6684 287.916C77.8157 288.167 77.9154 288.453 77.9674 288.774C78.028 289.095 78.0584 289.42 78.0584 289.749V294ZM84.8161 294.13C84.1141 294.13 83.5811 293.905 83.2171 293.454C82.8531 293.003 82.6711 292.336 82.6711 291.452V287.188H84.4131V291.075C84.4131 292.124 84.7901 292.648 85.5441 292.648C85.8821 292.648 86.2071 292.548 86.5191 292.349C86.8398 292.141 87.0998 291.829 87.2991 291.413V287.188H89.0411V291.998C89.0411 292.18 89.0715 292.31 89.1321 292.388C89.2015 292.466 89.3098 292.509 89.4571 292.518V294C89.2838 294.035 89.1365 294.056 89.0151 294.065C88.9025 294.074 88.7985 294.078 88.7031 294.078C88.3911 294.078 88.1355 294.009 87.9361 293.87C87.7455 293.723 87.6328 293.523 87.5981 293.272L87.5591 292.726C87.2558 293.194 86.8658 293.545 86.3891 293.779C85.9125 294.013 85.3881 294.13 84.8161 294.13ZM97.1233 294H95.3813V290.178C95.3813 289.632 95.2859 289.233 95.0953 288.982C94.9046 288.731 94.6403 288.605 94.3023 288.605C94.1289 288.605 93.9513 288.64 93.7693 288.709C93.5873 288.778 93.4139 288.878 93.2493 289.008C93.0933 289.129 92.9503 289.277 92.8203 289.45C92.6903 289.623 92.5949 289.814 92.5343 290.022V294H90.7923V287.188H92.3653V288.449C92.6166 288.016 92.9806 287.678 93.4573 287.435C93.9339 287.192 94.4713 287.071 95.0693 287.071C95.4939 287.071 95.8406 287.149 96.1093 287.305C96.3779 287.461 96.5859 287.665 96.7333 287.916C96.8806 288.167 96.9803 288.453 97.0323 288.774C97.0929 289.095 97.1233 289.42 97.1233 289.749V294ZM101.817 294.13C101.271 294.13 100.777 294.039 100.335 293.857C99.893 293.666 99.516 293.411 99.204 293.09C98.892 292.769 98.6493 292.397 98.476 291.972C98.3113 291.547 98.229 291.101 98.229 290.633C98.229 290.148 98.3113 289.693 98.476 289.268C98.6406 288.835 98.879 288.458 99.191 288.137C99.503 287.808 99.88 287.548 100.322 287.357C100.773 287.166 101.275 287.071 101.83 287.071C102.385 287.071 102.879 287.166 103.312 287.357C103.754 287.548 104.127 287.803 104.43 288.124C104.742 288.445 104.976 288.817 105.132 289.242C105.297 289.667 105.379 290.109 105.379 290.568C105.379 290.681 105.375 290.789 105.366 290.893C105.366 290.997 105.357 291.084 105.34 291.153H100.075C100.101 291.422 100.166 291.66 100.27 291.868C100.374 292.076 100.508 292.254 100.673 292.401C100.838 292.548 101.024 292.661 101.232 292.739C101.44 292.817 101.657 292.856 101.882 292.856C102.229 292.856 102.554 292.774 102.857 292.609C103.169 292.436 103.381 292.21 103.494 291.933L104.989 292.349C104.738 292.869 104.335 293.298 103.78 293.636C103.234 293.965 102.58 294.13 101.817 294.13ZM103.585 290.022C103.542 289.511 103.351 289.103 103.013 288.8C102.684 288.488 102.281 288.332 101.804 288.332C101.57 288.332 101.349 288.375 101.141 288.462C100.942 288.54 100.764 288.653 100.608 288.8C100.452 288.947 100.322 289.125 100.218 289.333C100.123 289.541 100.066 289.771 100.049 290.022H103.585ZM107.298 287.188L108.767 289.32L108.871 289.554L109.001 289.32L110.457 287.188H112.251L109.82 290.607L112.29 294H110.496L108.988 291.881L108.871 291.66L108.767 291.881L107.272 294H105.478L107.935 290.607L105.517 287.188H107.298ZM117.227 294.13C116.69 294.13 116.222 294.013 115.823 293.779C115.425 293.536 115.113 293.211 114.887 292.804V296.769H113.145V287.188H114.666V288.358C114.918 287.959 115.243 287.647 115.641 287.422C116.04 287.188 116.499 287.071 117.019 287.071C117.479 287.071 117.903 287.166 118.293 287.357C118.683 287.539 119.017 287.79 119.294 288.111C119.58 288.423 119.801 288.796 119.957 289.229C120.122 289.654 120.204 290.104 120.204 290.581C120.204 291.075 120.131 291.539 119.983 291.972C119.836 292.405 119.628 292.782 119.359 293.103C119.099 293.424 118.787 293.675 118.423 293.857C118.059 294.039 117.661 294.13 117.227 294.13ZM116.642 292.648C116.902 292.648 117.141 292.592 117.357 292.479C117.583 292.366 117.773 292.215 117.929 292.024C118.085 291.833 118.207 291.612 118.293 291.361C118.38 291.11 118.423 290.85 118.423 290.581C118.423 290.295 118.376 290.031 118.28 289.788C118.185 289.537 118.051 289.32 117.877 289.138C117.713 288.956 117.513 288.813 117.279 288.709C117.054 288.605 116.807 288.553 116.538 288.553C116.374 288.553 116.205 288.583 116.031 288.644C115.858 288.696 115.698 288.774 115.55 288.878C115.403 288.982 115.269 289.103 115.147 289.242C115.035 289.381 114.948 289.532 114.887 289.697V291.296C115.043 291.686 115.282 292.011 115.602 292.271C115.923 292.522 116.27 292.648 116.642 292.648ZM124.563 294.13C124.017 294.13 123.523 294.039 123.081 293.857C122.639 293.666 122.262 293.411 121.95 293.09C121.638 292.769 121.396 292.397 121.222 291.972C121.058 291.547 120.975 291.101 120.975 290.633C120.975 290.148 121.058 289.693 121.222 289.268C121.387 288.835 121.625 288.458 121.937 288.137C122.249 287.808 122.626 287.548 123.068 287.357C123.519 287.166 124.022 287.071 124.576 287.071C125.131 287.071 125.625 287.166 126.058 287.357C126.5 287.548 126.873 287.803 127.176 288.124C127.488 288.445 127.722 288.817 127.878 289.242C128.043 289.667 128.125 290.109 128.125 290.568C128.125 290.681 128.121 290.789 128.112 290.893C128.112 290.997 128.104 291.084 128.086 291.153H122.821C122.847 291.422 122.912 291.66 123.016 291.868C123.12 292.076 123.255 292.254 123.419 292.401C123.584 292.548 123.77 292.661 123.978 292.739C124.186 292.817 124.403 292.856 124.628 292.856C124.975 292.856 125.3 292.774 125.603 292.609C125.915 292.436 126.128 292.21 126.24 291.933L127.735 292.349C127.484 292.869 127.081 293.298 126.526 293.636C125.98 293.965 125.326 294.13 124.563 294.13ZM126.331 290.022C126.288 289.511 126.097 289.103 125.759 288.8C125.43 288.488 125.027 288.332 124.55 288.332C124.316 288.332 124.095 288.375 123.887 288.462C123.688 288.54 123.51 288.653 123.354 288.8C123.198 288.947 123.068 289.125 122.964 289.333C122.869 289.541 122.813 289.771 122.795 290.022H126.331ZM128.778 290.594C128.778 290.117 128.86 289.667 129.025 289.242C129.189 288.817 129.428 288.445 129.74 288.124C130.052 287.803 130.429 287.548 130.871 287.357C131.313 287.166 131.811 287.071 132.366 287.071C133.111 287.071 133.744 287.231 134.264 287.552C134.792 287.873 135.187 288.293 135.447 288.813L133.744 289.333C133.596 289.082 133.401 288.891 133.159 288.761C132.916 288.622 132.647 288.553 132.353 288.553C132.101 288.553 131.867 288.605 131.651 288.709C131.434 288.804 131.243 288.943 131.079 289.125C130.923 289.298 130.797 289.511 130.702 289.762C130.615 290.013 130.572 290.291 130.572 290.594C130.572 290.897 130.619 291.175 130.715 291.426C130.81 291.677 130.936 291.894 131.092 292.076C131.256 292.258 131.447 292.401 131.664 292.505C131.88 292.6 132.11 292.648 132.353 292.648C132.665 292.648 132.951 292.57 133.211 292.414C133.479 292.258 133.666 292.067 133.77 291.842L135.473 292.362C135.239 292.882 134.853 293.307 134.316 293.636C133.778 293.965 133.133 294.13 132.379 294.13C131.824 294.13 131.326 294.035 130.884 293.844C130.442 293.653 130.065 293.398 129.753 293.077C129.441 292.748 129.198 292.371 129.025 291.946C128.86 291.513 128.778 291.062 128.778 290.594ZM140.647 293.649C140.413 293.753 140.127 293.857 139.789 293.961C139.451 294.065 139.095 294.117 138.723 294.117C138.48 294.117 138.25 294.087 138.034 294.026C137.826 293.965 137.639 293.87 137.475 293.74C137.319 293.601 137.193 293.428 137.098 293.22C137.002 293.003 136.955 292.743 136.955 292.44V288.527H136.058V287.188H136.955V284.978H138.697V287.188H140.127V288.527H138.697V291.855C138.697 292.098 138.757 292.271 138.879 292.375C139.009 292.47 139.165 292.518 139.347 292.518C139.529 292.518 139.706 292.488 139.88 292.427C140.053 292.366 140.192 292.314 140.296 292.271L140.647 293.649ZM144.568 294.13C144.022 294.13 143.528 294.039 143.086 293.857C142.644 293.666 142.267 293.411 141.955 293.09C141.643 292.769 141.4 292.397 141.227 291.972C141.062 291.547 140.98 291.101 140.98 290.633C140.98 290.148 141.062 289.693 141.227 289.268C141.391 288.835 141.63 288.458 141.942 288.137C142.254 287.808 142.631 287.548 143.073 287.357C143.523 287.166 144.026 287.071 144.581 287.071C145.135 287.071 145.629 287.166 146.063 287.357C146.505 287.548 146.877 287.803 147.181 288.124C147.493 288.445 147.727 288.817 147.883 289.242C148.047 289.667 148.13 290.109 148.13 290.568C148.13 290.681 148.125 290.789 148.117 290.893C148.117 290.997 148.108 291.084 148.091 291.153H142.826C142.852 291.422 142.917 291.66 143.021 291.868C143.125 292.076 143.259 292.254 143.424 292.401C143.588 292.548 143.775 292.661 143.983 292.739C144.191 292.817 144.407 292.856 144.633 292.856C144.979 292.856 145.304 292.774 145.608 292.609C145.92 292.436 146.132 292.21 146.245 291.933L147.74 292.349C147.488 292.869 147.085 293.298 146.531 293.636C145.985 293.965 145.33 294.13 144.568 294.13ZM146.336 290.022C146.292 289.511 146.102 289.103 145.764 288.8C145.434 288.488 145.031 288.332 144.555 288.332C144.321 288.332 144.1 288.375 143.892 288.462C143.692 288.54 143.515 288.653 143.359 288.8C143.203 288.947 143.073 289.125 142.969 289.333C142.873 289.541 142.817 289.771 142.8 290.022H146.336ZM152.032 294.13C151.564 294.13 151.131 294.039 150.732 293.857C150.333 293.675 149.991 293.424 149.705 293.103C149.419 292.782 149.194 292.41 149.029 291.985C148.873 291.552 148.795 291.088 148.795 290.594C148.795 290.1 148.869 289.641 149.016 289.216C149.172 288.791 149.384 288.419 149.653 288.098C149.922 287.777 150.242 287.526 150.615 287.344C150.988 287.162 151.395 287.071 151.837 287.071C152.34 287.071 152.79 287.192 153.189 287.435C153.596 287.678 153.913 287.994 154.138 288.384V284.51H155.88V291.998C155.88 292.18 155.91 292.31 155.971 292.388C156.032 292.466 156.136 292.509 156.283 292.518V294C155.98 294.061 155.733 294.091 155.542 294.091C155.23 294.091 154.974 294.013 154.775 293.857C154.576 293.701 154.463 293.497 154.437 293.246L154.398 292.817C154.147 293.25 153.804 293.58 153.371 293.805C152.946 294.022 152.5 294.13 152.032 294.13ZM152.487 292.648C152.652 292.648 152.821 292.622 152.994 292.57C153.167 292.509 153.328 292.427 153.475 292.323C153.622 292.219 153.752 292.098 153.865 291.959C153.986 291.82 154.077 291.669 154.138 291.504V289.879C154.069 289.688 153.969 289.515 153.839 289.359C153.718 289.194 153.575 289.056 153.41 288.943C153.254 288.822 153.085 288.726 152.903 288.657C152.73 288.588 152.556 288.553 152.383 288.553C152.123 288.553 151.88 288.609 151.655 288.722C151.438 288.835 151.252 288.991 151.096 289.19C150.94 289.381 150.819 289.602 150.732 289.853C150.645 290.104 150.602 290.364 150.602 290.633C150.602 290.919 150.65 291.183 150.745 291.426C150.84 291.669 150.97 291.881 151.135 292.063C151.3 292.245 151.495 292.388 151.72 292.492C151.954 292.596 152.21 292.648 152.487 292.648ZM166.577 287.188C166.525 287.127 166.425 287.054 166.278 286.967C166.139 286.88 165.97 286.794 165.771 286.707C165.58 286.612 165.368 286.529 165.134 286.46C164.9 286.382 164.657 286.33 164.406 286.304V288.553L164.731 288.631C165.182 288.752 165.589 288.882 165.953 289.021C166.326 289.16 166.638 289.333 166.889 289.541C167.149 289.749 167.348 290 167.487 290.295C167.626 290.581 167.695 290.936 167.695 291.361C167.695 291.838 167.608 292.245 167.435 292.583C167.27 292.921 167.041 293.198 166.746 293.415C166.46 293.632 166.122 293.796 165.732 293.909C165.351 294.013 164.948 294.074 164.523 294.091V295.521H163.743V294.078C163.136 294.035 162.543 293.913 161.962 293.714C161.39 293.506 160.87 293.237 160.402 292.908L161.195 291.361C161.264 291.43 161.381 291.521 161.546 291.634C161.719 291.747 161.923 291.859 162.157 291.972C162.4 292.076 162.664 292.176 162.95 292.271C163.245 292.366 163.548 292.431 163.86 292.466V290.23C163.782 290.213 163.704 290.195 163.626 290.178C163.548 290.152 163.47 290.126 163.392 290.1C162.95 289.979 162.564 289.849 162.235 289.71C161.914 289.563 161.646 289.394 161.429 289.203C161.212 289.004 161.048 288.778 160.935 288.527C160.831 288.267 160.779 287.959 160.779 287.604C160.779 287.171 160.853 286.785 161 286.447C161.156 286.1 161.364 285.806 161.624 285.563C161.893 285.32 162.209 285.13 162.573 284.991C162.937 284.852 163.327 284.766 163.743 284.731V283.405H164.523V284.718C165.095 284.761 165.619 284.878 166.096 285.069C166.581 285.26 167.006 285.481 167.37 285.732L166.577 287.188ZM165.784 291.543C165.784 291.248 165.663 291.019 165.42 290.854C165.177 290.689 164.839 290.538 164.406 290.399V292.492C165.325 292.466 165.784 292.15 165.784 291.543ZM162.625 287.318C162.625 287.613 162.725 287.838 162.924 287.994C163.132 288.141 163.444 288.276 163.86 288.397V286.291C163.037 286.343 162.625 286.685 162.625 287.318ZM174.329 292.427V294H169.051V292.427H170.897V288.488C170.819 288.592 170.694 288.7 170.52 288.813C170.356 288.917 170.174 289.017 169.974 289.112C169.775 289.207 169.567 289.285 169.35 289.346C169.142 289.407 168.956 289.437 168.791 289.437V287.812C168.947 287.812 169.138 287.764 169.363 287.669C169.589 287.565 169.81 287.444 170.026 287.305C170.243 287.166 170.429 287.032 170.585 286.902C170.75 286.763 170.854 286.655 170.897 286.577H172.678V292.427H174.329ZM182.008 290.191C182.008 290.763 181.921 291.292 181.748 291.777C181.583 292.254 181.349 292.67 181.046 293.025C180.751 293.372 180.396 293.645 179.98 293.844C179.573 294.035 179.131 294.13 178.654 294.13C178.169 294.13 177.722 294.035 177.315 293.844C176.908 293.645 176.552 293.372 176.249 293.025C175.954 292.67 175.72 292.254 175.547 291.777C175.382 291.292 175.3 290.763 175.3 290.191C175.3 289.619 175.382 289.095 175.547 288.618C175.72 288.133 175.954 287.717 176.249 287.37C176.552 287.015 176.908 286.737 177.315 286.538C177.722 286.339 178.169 286.239 178.654 286.239C179.131 286.239 179.573 286.339 179.98 286.538C180.396 286.737 180.751 287.015 181.046 287.37C181.349 287.717 181.583 288.133 181.748 288.618C181.921 289.095 182.008 289.619 182.008 290.191ZM180.253 290.191C180.253 289.844 180.214 289.528 180.136 289.242C180.058 288.947 179.945 288.696 179.798 288.488C179.659 288.28 179.49 288.12 179.291 288.007C179.1 287.894 178.888 287.838 178.654 287.838C178.411 287.838 178.19 287.894 177.991 288.007C177.8 288.12 177.631 288.28 177.484 288.488C177.345 288.696 177.237 288.947 177.159 289.242C177.081 289.528 177.042 289.844 177.042 290.191C177.042 290.538 177.081 290.854 177.159 291.14C177.237 291.426 177.345 291.673 177.484 291.881C177.631 292.089 177.8 292.249 177.991 292.362C178.19 292.475 178.411 292.531 178.654 292.531C178.888 292.531 179.1 292.475 179.291 292.362C179.49 292.249 179.659 292.089 179.798 291.881C179.945 291.673 180.058 291.426 180.136 291.14C180.214 290.854 180.253 290.538 180.253 290.191ZM190.013 290.191C190.013 290.763 189.927 291.292 189.753 291.777C189.589 292.254 189.355 292.67 189.051 293.025C188.757 293.372 188.401 293.645 187.985 293.844C187.578 294.035 187.136 294.13 186.659 294.13C186.174 294.13 185.728 294.035 185.32 293.844C184.913 293.645 184.558 293.372 184.254 293.025C183.96 292.67 183.726 292.254 183.552 291.777C183.388 291.292 183.305 290.763 183.305 290.191C183.305 289.619 183.388 289.095 183.552 288.618C183.726 288.133 183.96 287.717 184.254 287.37C184.558 287.015 184.913 286.737 185.32 286.538C185.728 286.339 186.174 286.239 186.659 286.239C187.136 286.239 187.578 286.339 187.985 286.538C188.401 286.737 188.757 287.015 189.051 287.37C189.355 287.717 189.589 288.133 189.753 288.618C189.927 289.095 190.013 289.619 190.013 290.191ZM188.258 290.191C188.258 289.844 188.219 289.528 188.141 289.242C188.063 288.947 187.951 288.696 187.803 288.488C187.665 288.28 187.496 288.12 187.296 288.007C187.106 287.894 186.893 287.838 186.659 287.838C186.417 287.838 186.196 287.894 185.996 288.007C185.806 288.12 185.637 288.28 185.489 288.488C185.351 288.696 185.242 288.947 185.164 289.242C185.086 289.528 185.047 289.844 185.047 290.191C185.047 290.538 185.086 290.854 185.164 291.14C185.242 291.426 185.351 291.673 185.489 291.881C185.637 292.089 185.806 292.249 185.996 292.362C186.196 292.475 186.417 292.531 186.659 292.531C186.893 292.531 187.106 292.475 187.296 292.362C187.496 292.249 187.665 292.089 187.803 291.881C187.951 291.673 188.063 291.426 188.141 291.14C188.219 290.854 188.258 290.538 188.258 290.191ZM198.019 290.191C198.019 290.763 197.932 291.292 197.759 291.777C197.594 292.254 197.36 292.67 197.057 293.025C196.762 293.372 196.407 293.645 195.991 293.844C195.583 294.035 195.141 294.13 194.665 294.13C194.179 294.13 193.733 294.035 193.326 293.844C192.918 293.645 192.563 293.372 192.26 293.025C191.965 292.67 191.731 292.254 191.558 291.777C191.393 291.292 191.311 290.763 191.311 290.191C191.311 289.619 191.393 289.095 191.558 288.618C191.731 288.133 191.965 287.717 192.26 287.37C192.563 287.015 192.918 286.737 193.326 286.538C193.733 286.339 194.179 286.239 194.665 286.239C195.141 286.239 195.583 286.339 195.991 286.538C196.407 286.737 196.762 287.015 197.057 287.37C197.36 287.717 197.594 288.133 197.759 288.618C197.932 289.095 198.019 289.619 198.019 290.191ZM196.264 290.191C196.264 289.844 196.225 289.528 196.147 289.242C196.069 288.947 195.956 288.696 195.809 288.488C195.67 288.28 195.501 288.12 195.302 288.007C195.111 287.894 194.899 287.838 194.665 287.838C194.422 287.838 194.201 287.894 194.002 288.007C193.811 288.12 193.642 288.28 193.495 288.488C193.356 288.696 193.248 288.947 193.17 289.242C193.092 289.528 193.053 289.844 193.053 290.191C193.053 290.538 193.092 290.854 193.17 291.14C193.248 291.426 193.356 291.673 193.495 291.881C193.642 292.089 193.811 292.249 194.002 292.362C194.201 292.475 194.422 292.531 194.665 292.531C194.899 292.531 195.111 292.475 195.302 292.362C195.501 292.249 195.67 292.089 195.809 291.881C195.956 291.673 196.069 291.426 196.147 291.14C196.225 290.854 196.264 290.538 196.264 290.191ZM13.952 316.13C13.406 316.13 12.912 316.039 12.47 315.857C12.028 315.666 11.651 315.411 11.339 315.09C11.027 314.769 10.7843 314.397 10.611 313.972C10.4463 313.547 10.364 313.101 10.364 312.633C10.364 312.148 10.4463 311.693 10.611 311.268C10.7757 310.835 11.014 310.458 11.326 310.137C11.638 309.808 12.015 309.548 12.457 309.357C12.9077 309.166 13.4103 309.071 13.965 309.071C14.5197 309.071 15.0137 309.166 15.447 309.357C15.889 309.548 16.2617 309.803 16.565 310.124C16.877 310.445 17.111 310.817 17.267 311.242C17.4317 311.667 17.514 312.109 17.514 312.568C17.514 312.681 17.5097 312.789 17.501 312.893C17.501 312.997 17.4923 313.084 17.475 313.153H12.21C12.236 313.422 12.301 313.66 12.405 313.868C12.509 314.076 12.6433 314.254 12.808 314.401C12.9727 314.548 13.159 314.661 13.367 314.739C13.575 314.817 13.7917 314.856 14.017 314.856C14.3637 314.856 14.6887 314.774 14.992 314.609C15.304 314.436 15.5163 314.21 15.629 313.933L17.124 314.349C16.8727 314.869 16.4697 315.298 15.915 315.636C15.369 315.965 14.7147 316.13 13.952 316.13ZM15.72 312.022C15.6767 311.511 15.486 311.103 15.148 310.8C14.8187 310.488 14.4157 310.332 13.939 310.332C13.705 310.332 13.484 310.375 13.276 310.462C13.0767 310.54 12.899 310.653 12.743 310.8C12.587 310.947 12.457 311.125 12.353 311.333C12.2577 311.541 12.2013 311.771 12.184 312.022H15.72ZM19.433 309.188L20.902 311.32L21.006 311.554L21.136 311.32L22.592 309.188H24.386L21.955 312.607L24.425 316H22.631L21.123 313.881L21.006 313.66L20.902 313.881L19.407 316H17.613L20.07 312.607L17.652 309.188H19.433ZM29.3623 316.13C28.8249 316.13 28.3569 316.013 27.9583 315.779C27.5596 315.536 27.2476 315.211 27.0223 314.804V318.769H25.2803V309.188H26.8013V310.358C27.0526 309.959 27.3776 309.647 27.7763 309.422C28.1749 309.188 28.6343 309.071 29.1543 309.071C29.6136 309.071 30.0383 309.166 30.4283 309.357C30.8183 309.539 31.1519 309.79 31.4293 310.111C31.7153 310.423 31.9363 310.796 32.0923 311.229C32.2569 311.654 32.3393 312.104 32.3393 312.581C32.3393 313.075 32.2656 313.539 32.1183 313.972C31.9709 314.405 31.7629 314.782 31.4943 315.103C31.2343 315.424 30.9223 315.675 30.5583 315.857C30.1943 316.039 29.7956 316.13 29.3623 316.13ZM28.7773 314.648C29.0373 314.648 29.2756 314.592 29.4923 314.479C29.7176 314.366 29.9083 314.215 30.0643 314.024C30.2203 313.833 30.3416 313.612 30.4283 313.361C30.5149 313.11 30.5583 312.85 30.5583 312.581C30.5583 312.295 30.5106 312.031 30.4153 311.788C30.3199 311.537 30.1856 311.32 30.0123 311.138C29.8476 310.956 29.6483 310.813 29.4143 310.709C29.1889 310.605 28.9419 310.553 28.6733 310.553C28.5086 310.553 28.3396 310.583 28.1663 310.644C27.9929 310.696 27.8326 310.774 27.6853 310.878C27.5379 310.982 27.4036 311.103 27.2823 311.242C27.1696 311.381 27.0829 311.532 27.0223 311.697V313.296C27.1783 313.686 27.4166 314.011 27.7373 314.271C28.0579 314.522 28.4046 314.648 28.7773 314.648ZM36.6985 316.13C36.1525 316.13 35.6585 316.039 35.2165 315.857C34.7745 315.666 34.3975 315.411 34.0855 315.09C33.7735 314.769 33.5309 314.397 33.3575 313.972C33.1929 313.547 33.1105 313.101 33.1105 312.633C33.1105 312.148 33.1929 311.693 33.3575 311.268C33.5222 310.835 33.7605 310.458 34.0725 310.137C34.3845 309.808 34.7615 309.548 35.2035 309.357C35.6542 309.166 36.1569 309.071 36.7115 309.071C37.2662 309.071 37.7602 309.166 38.1935 309.357C38.6355 309.548 39.0082 309.803 39.3115 310.124C39.6235 310.445 39.8575 310.817 40.0135 311.242C40.1782 311.667 40.2605 312.109 40.2605 312.568C40.2605 312.681 40.2562 312.789 40.2475 312.893C40.2475 312.997 40.2389 313.084 40.2215 313.153H34.9565C34.9825 313.422 35.0475 313.66 35.1515 313.868C35.2555 314.076 35.3899 314.254 35.5545 314.401C35.7192 314.548 35.9055 314.661 36.1135 314.739C36.3215 314.817 36.5382 314.856 36.7635 314.856C37.1102 314.856 37.4352 314.774 37.7385 314.609C38.0505 314.436 38.2629 314.21 38.3755 313.933L39.8705 314.349C39.6192 314.869 39.2162 315.298 38.6615 315.636C38.1155 315.965 37.4612 316.13 36.6985 316.13ZM38.4665 312.022C38.4232 311.511 38.2325 311.103 37.8945 310.8C37.5652 310.488 37.1622 310.332 36.6855 310.332C36.4515 310.332 36.2305 310.375 36.0225 310.462C35.8232 310.54 35.6455 310.653 35.4895 310.8C35.3335 310.947 35.2035 311.125 35.0995 311.333C35.0042 311.541 34.9479 311.771 34.9305 312.022H38.4665ZM47.6728 316H45.9308V312.178C45.9308 311.632 45.8354 311.233 45.6448 310.982C45.4541 310.731 45.1898 310.605 44.8518 310.605C44.6784 310.605 44.5008 310.64 44.3188 310.709C44.1368 310.778 43.9634 310.878 43.7987 311.008C43.6427 311.129 43.4998 311.277 43.3698 311.45C43.2398 311.623 43.1444 311.814 43.0838 312.022V316H41.3417V309.188H42.9148V310.449C43.1661 310.016 43.5301 309.678 44.0067 309.435C44.4834 309.192 45.0208 309.071 45.6188 309.071C46.0434 309.071 46.3901 309.149 46.6588 309.305C46.9274 309.461 47.1354 309.665 47.2828 309.916C47.4301 310.167 47.5298 310.453 47.5818 310.774C47.6424 311.095 47.6728 311.42 47.6728 311.749V316ZM51.7815 316.13C51.2095 316.13 50.6505 316.039 50.1045 315.857C49.5585 315.675 49.0905 315.415 48.7005 315.077L49.3505 313.985C49.7665 314.28 50.1695 314.505 50.5595 314.661C50.9581 314.808 51.3525 314.882 51.7425 314.882C52.0891 314.882 52.3621 314.817 52.5615 314.687C52.7608 314.557 52.8605 314.371 52.8605 314.128C52.8605 313.885 52.7435 313.708 52.5095 313.595C52.2755 313.482 51.8941 313.352 51.3655 313.205C50.9235 313.084 50.5465 312.967 50.2345 312.854C49.9225 312.741 49.6711 312.616 49.4805 312.477C49.2898 312.33 49.1511 312.165 49.0645 311.983C48.9778 311.792 48.9345 311.567 48.9345 311.307C48.9345 310.96 48.9995 310.648 49.1295 310.371C49.2681 310.094 49.4588 309.86 49.7015 309.669C49.9441 309.47 50.2258 309.318 50.5465 309.214C50.8758 309.11 51.2311 309.058 51.6125 309.058C52.1238 309.058 52.6005 309.132 53.0425 309.279C53.4931 309.426 53.9048 309.665 54.2775 309.994L53.5755 311.047C53.2288 310.787 52.8908 310.596 52.5615 310.475C52.2408 310.354 51.9201 310.293 51.5995 310.293C51.3048 310.293 51.0578 310.354 50.8585 310.475C50.6591 310.596 50.5595 310.791 50.5595 311.06C50.5595 311.181 50.5811 311.281 50.6245 311.359C50.6765 311.437 50.7545 311.506 50.8585 311.567C50.9625 311.628 51.0968 311.688 51.2615 311.749C51.4348 311.801 51.6471 311.857 51.8985 311.918C52.3665 312.039 52.7651 312.161 53.0945 312.282C53.4325 312.403 53.7055 312.542 53.9135 312.698C54.1301 312.854 54.2861 313.036 54.3815 313.244C54.4855 313.443 54.5375 313.686 54.5375 313.972C54.5375 314.639 54.2905 315.168 53.7965 315.558C53.3025 315.939 52.6308 316.13 51.7815 316.13ZM58.8484 316.13C58.3024 316.13 57.8084 316.039 57.3664 315.857C56.9244 315.666 56.5474 315.411 56.2354 315.09C55.9234 314.769 55.6807 314.397 55.5074 313.972C55.3427 313.547 55.2604 313.101 55.2604 312.633C55.2604 312.148 55.3427 311.693 55.5074 311.268C55.672 310.835 55.9104 310.458 56.2224 310.137C56.5344 309.808 56.9114 309.548 57.3534 309.357C57.804 309.166 58.3067 309.071 58.8614 309.071C59.416 309.071 59.91 309.166 60.3434 309.357C60.7854 309.548 61.158 309.803 61.4614 310.124C61.7734 310.445 62.0074 310.817 62.1634 311.242C62.328 311.667 62.4104 312.109 62.4104 312.568C62.4104 312.681 62.406 312.789 62.3974 312.893C62.3974 312.997 62.3887 313.084 62.3714 313.153H57.1064C57.1324 313.422 57.1974 313.66 57.3014 313.868C57.4054 314.076 57.5397 314.254 57.7044 314.401C57.869 314.548 58.0554 314.661 58.2634 314.739C58.4714 314.817 58.688 314.856 58.9134 314.856C59.26 314.856 59.585 314.774 59.8884 314.609C60.2004 314.436 60.4127 314.21 60.5254 313.933L62.0204 314.349C61.769 314.869 61.366 315.298 60.8114 315.636C60.2654 315.965 59.611 316.13 58.8484 316.13ZM60.6164 312.022C60.573 311.511 60.3824 311.103 60.0444 310.8C59.715 310.488 59.312 310.332 58.8354 310.332C58.6014 310.332 58.3804 310.375 58.1724 310.462C57.973 310.54 57.7954 310.653 57.6394 310.8C57.4834 310.947 57.3534 311.125 57.2494 311.333C57.154 311.541 57.0977 311.771 57.0804 312.022H60.6164Z" fill="#214E41"/>
<path d="M285 172H363V322H285V172Z" fill="#43806C"/>
<path d="M310.852 158.499C310.601 158.222 310.267 157.992 309.851 157.81C309.444 157.628 308.98 157.528 308.46 157.511V160.982C308.478 160.982 308.491 160.986 308.499 160.995C308.517 160.995 308.534 160.995 308.551 160.995C309.045 161.099 309.487 161.216 309.877 161.346C310.276 161.476 310.614 161.641 310.891 161.84C311.169 162.031 311.381 162.265 311.528 162.542C311.676 162.819 311.749 163.166 311.749 163.582C311.749 163.998 311.667 164.362 311.502 164.674C311.346 164.986 311.125 165.246 310.839 165.454C310.553 165.653 310.211 165.805 309.812 165.909C309.422 166.013 308.993 166.069 308.525 166.078V167.339H308.044V166.065C306.779 166.004 305.67 165.562 304.716 164.739L305.171 163.998C305.475 164.327 305.878 164.609 306.38 164.843C306.892 165.077 307.459 165.216 308.083 165.259V161.788L308.005 161.762C307.52 161.649 307.095 161.532 306.731 161.411C306.367 161.29 306.06 161.138 305.808 160.956C305.557 160.774 305.366 160.557 305.236 160.306C305.115 160.046 305.054 159.73 305.054 159.357C305.054 158.95 305.128 158.59 305.275 158.278C305.423 157.957 305.626 157.689 305.886 157.472C306.146 157.247 306.458 157.073 306.822 156.952C307.195 156.822 307.602 156.744 308.044 156.718V155.405H308.525V156.705C309.097 156.722 309.609 156.826 310.059 157.017C310.519 157.199 310.93 157.45 311.294 157.771L310.852 158.499ZM310.787 163.673C310.787 163.413 310.735 163.192 310.631 163.01C310.536 162.828 310.389 162.668 310.189 162.529C309.999 162.39 309.756 162.269 309.461 162.165C309.175 162.061 308.842 161.961 308.46 161.866V165.272C309.197 165.272 309.769 165.142 310.176 164.882C310.584 164.613 310.787 164.21 310.787 163.673ZM305.99 159.227C305.99 159.478 306.029 159.691 306.107 159.864C306.194 160.029 306.32 160.176 306.484 160.306C306.658 160.427 306.874 160.536 307.134 160.631C307.403 160.718 307.719 160.804 308.083 160.891V157.524C307.347 157.559 306.814 157.728 306.484 158.031C306.155 158.334 305.99 158.733 305.99 159.227ZM317.549 165.194V166H313.142V165.194H314.988V159.63C314.919 159.734 314.797 159.847 314.624 159.968C314.459 160.089 314.273 160.202 314.065 160.306C313.866 160.41 313.658 160.497 313.441 160.566C313.224 160.635 313.034 160.67 312.869 160.67V159.812C313.068 159.812 313.285 159.756 313.519 159.643C313.762 159.53 313.987 159.4 314.195 159.253C314.412 159.106 314.594 158.967 314.741 158.837C314.888 158.707 314.971 158.62 314.988 158.577H315.898V165.194H317.549ZM318.95 167.053L319.171 165.961H318.872V164.726H319.73V165.961L319.405 167.053H318.95ZM328.018 162.958C328.018 163.4 327.932 163.816 327.758 164.206C327.594 164.587 327.364 164.921 327.069 165.207C326.775 165.493 326.428 165.718 326.029 165.883C325.631 166.048 325.202 166.13 324.742 166.13C324.257 166.13 323.811 166.043 323.403 165.87C322.996 165.688 322.645 165.432 322.35 165.103C322.064 164.774 321.839 164.371 321.674 163.894C321.51 163.409 321.427 162.867 321.427 162.269C321.427 161.333 321.51 160.518 321.674 159.825C321.839 159.123 322.069 158.542 322.363 158.083C322.667 157.615 323.026 157.268 323.442 157.043C323.858 156.818 324.322 156.705 324.833 156.705C325.449 156.705 325.999 156.857 326.484 157.16C326.97 157.463 327.338 157.884 327.589 158.421L327.017 158.941C326.835 158.499 326.549 158.148 326.159 157.888C325.769 157.619 325.327 157.485 324.833 157.485C324.452 157.485 324.105 157.576 323.793 157.758C323.481 157.94 323.213 158.204 322.987 158.551C322.771 158.889 322.597 159.309 322.467 159.812C322.346 160.315 322.285 160.882 322.285 161.515C322.476 161.004 322.801 160.596 323.26 160.293C323.728 159.99 324.257 159.838 324.846 159.838C325.288 159.838 325.7 159.92 326.081 160.085C326.471 160.241 326.809 160.462 327.095 160.748C327.381 161.025 327.607 161.355 327.771 161.736C327.936 162.117 328.018 162.525 328.018 162.958ZM324.768 165.35C325.098 165.35 325.405 165.289 325.691 165.168C325.986 165.038 326.242 164.865 326.458 164.648C326.684 164.431 326.857 164.18 326.978 163.894C327.108 163.599 327.173 163.287 327.173 162.958C327.173 162.629 327.108 162.321 326.978 162.035C326.848 161.74 326.671 161.485 326.445 161.268C326.229 161.051 325.973 160.882 325.678 160.761C325.392 160.631 325.085 160.566 324.755 160.566C324.426 160.566 324.114 160.631 323.819 160.761C323.533 160.882 323.278 161.051 323.052 161.268C322.836 161.485 322.662 161.74 322.532 162.035C322.411 162.321 322.35 162.629 322.35 162.958C322.35 163.287 322.415 163.595 322.545 163.881C322.675 164.167 322.849 164.423 323.065 164.648C323.291 164.865 323.546 165.038 323.832 165.168C324.127 165.289 324.439 165.35 324.768 165.35ZM333.212 167.651V165.337H328.883V164.557L333.498 158.577H334.096V164.531H335.24V165.337H334.096V167.651H333.212ZM329.819 164.531H333.303V159.968L329.819 164.531ZM340.309 167.651V165.337H335.98V164.557L340.595 158.577H341.193V164.531H342.337V165.337H341.193V167.651H340.309ZM336.916 164.531H340.4V159.968L336.916 164.531Z" fill="#214E41"/>
<path d="M292.816 358V348.77H296.17C296.924 348.77 297.583 348.891 298.146 349.134C298.718 349.377 299.195 349.706 299.576 350.122C299.958 350.538 300.244 351.028 300.434 351.591C300.625 352.146 300.72 352.739 300.72 353.372C300.72 354.074 300.612 354.711 300.395 355.283C300.187 355.846 299.884 356.332 299.485 356.739C299.087 357.138 298.606 357.45 298.042 357.675C297.488 357.892 296.864 358 296.17 358H292.816ZM298.913 353.372C298.913 352.93 298.853 352.523 298.731 352.15C298.61 351.777 298.432 351.457 298.198 351.188C297.964 350.919 297.674 350.711 297.327 350.564C296.989 350.417 296.604 350.343 296.17 350.343H294.61V356.427H296.17C296.612 356.427 297.002 356.349 297.34 356.193C297.687 356.037 297.973 355.825 298.198 355.556C298.432 355.279 298.61 354.954 298.731 354.581C298.853 354.208 298.913 353.805 298.913 353.372ZM305.112 358.13C304.566 358.13 304.072 358.039 303.63 357.857C303.188 357.666 302.811 357.411 302.499 357.09C302.187 356.769 301.944 356.397 301.771 355.972C301.606 355.547 301.524 355.101 301.524 354.633C301.524 354.148 301.606 353.693 301.771 353.268C301.936 352.835 302.174 352.458 302.486 352.137C302.798 351.808 303.175 351.548 303.617 351.357C304.068 351.166 304.57 351.071 305.125 351.071C305.68 351.071 306.174 351.166 306.607 351.357C307.049 351.548 307.422 351.803 307.725 352.124C308.037 352.445 308.271 352.817 308.427 353.242C308.592 353.667 308.674 354.109 308.674 354.568C308.674 354.681 308.67 354.789 308.661 354.893C308.661 354.997 308.652 355.084 308.635 355.153H303.37C303.396 355.422 303.461 355.66 303.565 355.868C303.669 356.076 303.803 356.254 303.968 356.401C304.133 356.548 304.319 356.661 304.527 356.739C304.735 356.817 304.952 356.856 305.177 356.856C305.524 356.856 305.849 356.774 306.152 356.609C306.464 356.436 306.676 356.21 306.789 355.933L308.284 356.349C308.033 356.869 307.63 357.298 307.075 357.636C306.529 357.965 305.875 358.13 305.112 358.13ZM306.88 354.022C306.837 353.511 306.646 353.103 306.308 352.8C305.979 352.488 305.576 352.332 305.099 352.332C304.865 352.332 304.644 352.375 304.436 352.462C304.237 352.54 304.059 352.653 303.903 352.8C303.747 352.947 303.617 353.125 303.513 353.333C303.418 353.541 303.361 353.771 303.344 354.022H306.88ZM312.556 358.13C312.088 358.13 311.655 358.039 311.256 357.857C310.858 357.675 310.515 357.424 310.229 357.103C309.943 356.782 309.718 356.41 309.553 355.985C309.397 355.552 309.319 355.088 309.319 354.594C309.319 354.1 309.393 353.641 309.54 353.216C309.696 352.791 309.909 352.419 310.177 352.098C310.446 351.777 310.767 351.526 311.139 351.344C311.512 351.162 311.919 351.071 312.361 351.071C312.864 351.071 313.315 351.192 313.713 351.435C314.121 351.678 314.437 351.994 314.662 352.384V348.51H316.404V355.998C316.404 356.18 316.435 356.31 316.495 356.388C316.556 356.466 316.66 356.509 316.807 356.518V358C316.504 358.061 316.257 358.091 316.066 358.091C315.754 358.091 315.499 358.013 315.299 357.857C315.1 357.701 314.987 357.497 314.961 357.246L314.922 356.817C314.671 357.25 314.329 357.58 313.895 357.805C313.471 358.022 313.024 358.13 312.556 358.13ZM313.011 356.648C313.176 356.648 313.345 356.622 313.518 356.57C313.692 356.509 313.852 356.427 313.999 356.323C314.147 356.219 314.277 356.098 314.389 355.959C314.511 355.82 314.602 355.669 314.662 355.504V353.879C314.593 353.688 314.493 353.515 314.363 353.359C314.242 353.194 314.099 353.056 313.934 352.943C313.778 352.822 313.609 352.726 313.427 352.657C313.254 352.588 313.081 352.553 312.907 352.553C312.647 352.553 312.405 352.609 312.179 352.722C311.963 352.835 311.776 352.991 311.62 353.19C311.464 353.381 311.343 353.602 311.256 353.853C311.17 354.104 311.126 354.364 311.126 354.633C311.126 354.919 311.174 355.183 311.269 355.426C311.365 355.669 311.495 355.881 311.659 356.063C311.824 356.245 312.019 356.388 312.244 356.492C312.478 356.596 312.734 356.648 313.011 356.648ZM320.194 358.13C319.492 358.13 318.959 357.905 318.595 357.454C318.231 357.003 318.049 356.336 318.049 355.452V351.188H319.791V355.075C319.791 356.124 320.168 356.648 320.922 356.648C321.26 356.648 321.585 356.548 321.897 356.349C322.218 356.141 322.478 355.829 322.677 355.413V351.188H324.419V355.998C324.419 356.18 324.45 356.31 324.51 356.388C324.58 356.466 324.688 356.509 324.835 356.518V358C324.662 358.035 324.515 358.056 324.393 358.065C324.281 358.074 324.177 358.078 324.081 358.078C323.769 358.078 323.514 358.009 323.314 357.87C323.124 357.723 323.011 357.523 322.976 357.272L322.937 356.726C322.634 357.194 322.244 357.545 321.767 357.779C321.291 358.013 320.766 358.13 320.194 358.13ZM325.721 354.594C325.721 354.117 325.804 353.667 325.968 353.242C326.133 352.817 326.371 352.445 326.683 352.124C326.995 351.803 327.372 351.548 327.814 351.357C328.256 351.166 328.755 351.071 329.309 351.071C330.055 351.071 330.687 351.231 331.207 351.552C331.736 351.873 332.13 352.293 332.39 352.813L330.687 353.333C330.54 353.082 330.345 352.891 330.102 352.761C329.86 352.622 329.591 352.553 329.296 352.553C329.045 352.553 328.811 352.605 328.594 352.709C328.378 352.804 328.187 352.943 328.022 353.125C327.866 353.298 327.741 353.511 327.645 353.762C327.559 354.013 327.515 354.291 327.515 354.594C327.515 354.897 327.563 355.175 327.658 355.426C327.754 355.677 327.879 355.894 328.035 356.076C328.2 356.258 328.391 356.401 328.607 356.505C328.824 356.6 329.054 356.648 329.296 356.648C329.608 356.648 329.894 356.57 330.154 356.414C330.423 356.258 330.609 356.067 330.713 355.842L332.416 356.362C332.182 356.882 331.797 357.307 331.259 357.636C330.722 357.965 330.076 358.13 329.322 358.13C328.768 358.13 328.269 358.035 327.827 357.844C327.385 357.653 327.008 357.398 326.696 357.077C326.384 356.748 326.142 356.371 325.968 355.946C325.804 355.513 325.721 355.062 325.721 354.594ZM337.57 357.649C337.336 357.753 337.05 357.857 336.712 357.961C336.374 358.065 336.019 358.117 335.646 358.117C335.404 358.117 335.174 358.087 334.957 358.026C334.749 357.965 334.563 357.87 334.398 357.74C334.242 357.601 334.117 357.428 334.021 357.22C333.926 357.003 333.878 356.743 333.878 356.44V352.527H332.981V351.188H333.878V348.978H335.62V351.188H337.05V352.527H335.62V355.855C335.62 356.098 335.681 356.271 335.802 356.375C335.932 356.47 336.088 356.518 336.27 356.518C336.452 356.518 336.63 356.488 336.803 356.427C336.977 356.366 337.115 356.314 337.219 356.271L337.57 357.649ZM338.478 358V351.188H340.22V358H338.478ZM338.478 350.239V348.51H340.22V350.239H338.478ZM345.665 358.13C345.145 358.13 344.681 358.013 344.274 357.779C343.867 357.545 343.546 357.224 343.312 356.817V358H341.791V348.51H343.533V352.384C343.776 351.968 344.092 351.647 344.482 351.422C344.881 351.188 345.344 351.071 345.873 351.071C346.315 351.071 346.718 351.166 347.082 351.357C347.446 351.548 347.758 351.803 348.018 352.124C348.287 352.445 348.49 352.822 348.629 353.255C348.776 353.688 348.85 354.143 348.85 354.62C348.85 355.114 348.768 355.573 348.603 355.998C348.447 356.423 348.226 356.795 347.94 357.116C347.654 357.428 347.316 357.675 346.926 357.857C346.536 358.039 346.116 358.13 345.665 358.13ZM345.184 356.648C345.461 356.648 345.717 356.596 345.951 356.492C346.185 356.379 346.384 356.232 346.549 356.05C346.714 355.868 346.839 355.656 346.926 355.413C347.021 355.17 347.069 354.91 347.069 354.633C347.069 354.356 347.026 354.091 346.939 353.84C346.852 353.589 346.727 353.368 346.562 353.177C346.406 352.986 346.22 352.835 346.003 352.722C345.786 352.609 345.548 352.553 345.288 352.553C344.898 352.553 344.547 352.683 344.235 352.943C343.932 353.194 343.698 353.506 343.533 353.879V355.504C343.594 355.677 343.68 355.833 343.793 355.972C343.914 356.111 344.049 356.232 344.196 356.336C344.343 356.431 344.504 356.509 344.677 356.57C344.85 356.622 345.019 356.648 345.184 356.648ZM350.017 348.51H351.759V355.816C351.759 356.067 351.82 356.262 351.941 356.401C352.063 356.54 352.236 356.609 352.461 356.609C352.565 356.609 352.678 356.592 352.799 356.557C352.929 356.522 353.051 356.479 353.163 356.427L353.397 357.753C353.163 357.866 352.89 357.952 352.578 358.013C352.266 358.074 351.985 358.104 351.733 358.104C351.187 358.104 350.763 357.961 350.459 357.675C350.165 357.38 350.017 356.964 350.017 356.427V348.51ZM357.315 358.13C356.769 358.13 356.275 358.039 355.833 357.857C355.391 357.666 355.014 357.411 354.702 357.09C354.39 356.769 354.148 356.397 353.974 355.972C353.81 355.547 353.727 355.101 353.727 354.633C353.727 354.148 353.81 353.693 353.974 353.268C354.139 352.835 354.377 352.458 354.689 352.137C355.001 351.808 355.378 351.548 355.82 351.357C356.271 351.166 356.774 351.071 357.328 351.071C357.883 351.071 358.377 351.166 358.81 351.357C359.252 351.548 359.625 351.803 359.928 352.124C360.24 352.445 360.474 352.817 360.63 353.242C360.795 353.667 360.877 354.109 360.877 354.568C360.877 354.681 360.873 354.789 360.864 354.893C360.864 354.997 360.856 355.084 360.838 355.153H355.573C355.599 355.422 355.664 355.66 355.768 355.868C355.872 356.076 356.007 356.254 356.171 356.401C356.336 356.548 356.522 356.661 356.73 356.739C356.938 356.817 357.155 356.856 357.38 356.856C357.727 356.856 358.052 356.774 358.355 356.609C358.667 356.436 358.88 356.21 358.992 355.933L360.487 356.349C360.236 356.869 359.833 357.298 359.278 357.636C358.732 357.965 358.078 358.13 357.315 358.13ZM359.083 354.022C359.04 353.511 358.849 353.103 358.511 352.8C358.182 352.488 357.779 352.332 357.302 352.332C357.068 352.332 356.847 352.375 356.639 352.462C356.44 352.54 356.262 352.653 356.106 352.8C355.95 352.947 355.82 353.125 355.716 353.333C355.621 353.541 355.565 353.771 355.547 354.022H359.083Z" fill="#214E41"/>
<path d="M403 22H481V322H403V22Z" fill="#43806C"/>
<path d="M427.837 8.499C427.585 8.22167 427.252 7.992 426.836 7.81C426.428 7.628 425.965 7.52833 425.445 7.511V10.982C425.462 10.982 425.475 10.9863 425.484 10.995C425.501 10.995 425.518 10.995 425.536 10.995C426.03 11.099 426.472 11.216 426.862 11.346C427.26 11.476 427.598 11.6407 427.876 11.84C428.153 12.0307 428.365 12.2647 428.513 12.542C428.66 12.8193 428.734 13.166 428.734 13.582C428.734 13.998 428.651 14.362 428.487 14.674C428.331 14.986 428.11 15.246 427.824 15.454C427.538 15.6533 427.195 15.805 426.797 15.909C426.407 16.013 425.978 16.0693 425.51 16.078V17.339H425.029V16.065C423.763 16.0043 422.654 15.5623 421.701 14.739L422.156 13.998C422.459 14.3273 422.862 14.609 423.365 14.843C423.876 15.077 424.444 15.2157 425.068 15.259V11.788L424.99 11.762C424.504 11.6493 424.08 11.5323 423.716 11.411C423.352 11.2897 423.044 11.138 422.793 10.956C422.541 10.774 422.351 10.5573 422.221 10.306C422.099 10.046 422.039 9.72967 422.039 9.357C422.039 8.94967 422.112 8.59 422.26 8.278C422.407 7.95733 422.611 7.68867 422.871 7.472C423.131 7.24667 423.443 7.07333 423.807 6.952C424.179 6.822 424.587 6.744 425.029 6.718V5.405H425.51V6.705C426.082 6.72233 426.593 6.82633 427.044 7.017C427.503 7.199 427.915 7.45033 428.279 7.771L427.837 8.499ZM427.772 13.673C427.772 13.413 427.72 13.192 427.616 13.01C427.52 12.828 427.373 12.6677 427.174 12.529C426.983 12.3903 426.74 12.269 426.446 12.165C426.16 12.061 425.826 11.9613 425.445 11.866V15.272C426.181 15.272 426.753 15.142 427.161 14.882C427.568 14.6133 427.772 14.2103 427.772 13.673ZM422.975 9.227C422.975 9.47833 423.014 9.69067 423.092 9.864C423.178 10.0287 423.304 10.176 423.469 10.306C423.642 10.4273 423.859 10.5357 424.119 10.631C424.387 10.7177 424.704 10.8043 425.068 10.891V7.524C424.331 7.55867 423.798 7.72767 423.469 8.031C423.139 8.33433 422.975 8.733 422.975 9.227ZM433.883 17.651V15.337H429.554V14.557L434.169 8.577H434.767V14.531H435.911V15.337H434.767V17.651H433.883ZM430.49 14.531H433.974V9.968L430.49 14.531ZM437.47 17.053L437.691 15.961H437.392V14.726H438.25V15.961L437.925 17.053H437.47ZM446.513 12.191C446.513 12.763 446.431 13.2917 446.266 13.777C446.101 14.2537 445.872 14.6697 445.577 15.025C445.291 15.3717 444.949 15.6447 444.55 15.844C444.151 16.0347 443.718 16.13 443.25 16.13C442.782 16.13 442.349 16.0347 441.95 15.844C441.551 15.6447 441.205 15.3717 440.91 15.025C440.624 14.6697 440.399 14.2537 440.234 13.777C440.069 13.2917 439.987 12.763 439.987 12.191C439.987 11.619 440.069 11.0947 440.234 10.618C440.399 10.1327 440.624 9.71667 440.91 9.37C441.205 9.01467 441.551 8.73733 441.95 8.538C442.349 8.33867 442.782 8.239 443.25 8.239C443.718 8.239 444.151 8.33867 444.55 8.538C444.949 8.73733 445.291 9.01467 445.577 9.37C445.872 9.71667 446.101 10.1327 446.266 10.618C446.431 11.0947 446.513 11.619 446.513 12.191ZM445.616 12.191C445.616 11.723 445.555 11.2983 445.434 10.917C445.321 10.5357 445.161 10.2107 444.953 9.942C444.745 9.66467 444.494 9.45233 444.199 9.305C443.913 9.149 443.597 9.071 443.25 9.071C442.895 9.071 442.57 9.149 442.275 9.305C441.989 9.45233 441.742 9.66467 441.534 9.942C441.326 10.2107 441.161 10.5357 441.04 10.917C440.927 11.2983 440.871 11.723 440.871 12.191C440.871 12.659 440.927 13.0837 441.04 13.465C441.161 13.8463 441.326 14.1757 441.534 14.453C441.742 14.7217 441.989 14.9297 442.275 15.077C442.57 15.2243 442.895 15.298 443.25 15.298C443.597 15.298 443.913 15.2243 444.199 15.077C444.494 14.9297 444.745 14.7217 444.953 14.453C445.161 14.1757 445.321 13.8463 445.434 13.465C445.555 13.0837 445.616 12.659 445.616 12.191ZM451.691 12.932C452.263 13.0273 452.718 13.2873 453.056 13.712C453.403 14.1367 453.576 14.661 453.576 15.285C453.576 15.675 453.502 16.0303 453.355 16.351C453.216 16.6803 453.013 16.9577 452.744 17.183C452.484 17.417 452.168 17.5947 451.795 17.716C451.431 17.846 451.024 17.911 450.573 17.911C449.914 17.911 449.338 17.7767 448.844 17.508C448.35 17.248 447.977 16.884 447.726 16.416L448.337 15.857C448.519 16.2383 448.796 16.5417 449.169 16.767C449.542 16.9923 450.01 17.105 450.573 17.105C451.223 17.105 451.734 16.9447 452.107 16.624C452.48 16.312 452.666 15.8613 452.666 15.272C452.666 14.674 452.471 14.2017 452.081 13.855C451.691 13.5083 451.128 13.335 450.391 13.335H450.066V12.581H450.417C451.084 12.581 451.596 12.4293 451.951 12.126C452.306 11.814 452.484 11.411 452.484 10.917C452.484 10.657 452.436 10.4273 452.341 10.228C452.246 10.0287 452.111 9.864 451.938 9.734C451.773 9.59533 451.574 9.49133 451.34 9.422C451.115 9.35267 450.868 9.318 450.599 9.318C450.105 9.318 449.667 9.43067 449.286 9.656C448.913 9.87267 448.632 10.176 448.441 10.566L447.869 10.02C447.973 9.79467 448.12 9.591 448.311 9.409C448.502 9.21833 448.718 9.058 448.961 8.928C449.204 8.798 449.472 8.69833 449.767 8.629C450.062 8.551 450.365 8.512 450.677 8.512C451.076 8.512 451.44 8.56833 451.769 8.681C452.107 8.79367 452.397 8.954 452.64 9.162C452.883 9.36133 453.069 9.604 453.199 9.89C453.338 10.176 453.407 10.4923 453.407 10.839C453.407 11.099 453.368 11.3503 453.29 11.593C453.212 11.827 453.099 12.0393 452.952 12.23C452.805 12.412 452.623 12.568 452.406 12.698C452.198 12.8193 451.96 12.8973 451.691 12.932ZM454.644 11.749C454.644 11.307 454.727 10.8953 454.891 10.514C455.065 10.124 455.299 9.786 455.593 9.5C455.888 9.214 456.235 8.98867 456.633 8.824C457.032 8.65933 457.461 8.577 457.92 8.577C458.406 8.577 458.852 8.668 459.259 8.85C459.667 9.02333 460.013 9.27467 460.299 9.604C460.594 9.93333 460.824 10.3407 460.988 10.826C461.153 11.3027 461.235 11.84 461.235 12.438C461.235 13.374 461.153 14.193 460.988 14.895C460.824 15.5883 460.59 16.1647 460.286 16.624C459.992 17.092 459.632 17.4387 459.207 17.664C458.791 17.8893 458.332 18.002 457.829 18.002C457.223 18.002 456.672 17.8503 456.178 17.547C455.693 17.2437 455.325 16.8233 455.073 16.286L455.645 15.766C455.827 16.208 456.113 16.559 456.503 16.819C456.902 17.0877 457.344 17.222 457.829 17.222C458.211 17.222 458.557 17.131 458.869 16.949C459.181 16.767 459.45 16.5027 459.675 16.156C459.901 15.818 460.074 15.402 460.195 14.908C460.317 14.4053 460.382 13.8333 460.39 13.192C460.191 13.7033 459.857 14.1107 459.389 14.414C458.93 14.7173 458.406 14.869 457.816 14.869C457.374 14.869 456.958 14.791 456.568 14.635C456.187 14.4703 455.853 14.2493 455.567 13.972C455.281 13.686 455.056 13.3523 454.891 12.971C454.727 12.5897 454.644 12.1823 454.644 11.749ZM457.907 9.357C457.578 9.357 457.266 9.422 456.971 9.552C456.685 9.67333 456.43 9.84233 456.204 10.059C455.988 10.2757 455.814 10.5313 455.684 10.826C455.554 11.112 455.489 11.4197 455.489 11.749C455.489 12.0783 455.554 12.3903 455.684 12.685C455.814 12.971 455.988 13.2223 456.204 13.439C456.43 13.6557 456.685 13.829 456.971 13.959C457.266 14.0803 457.578 14.141 457.907 14.141C458.237 14.141 458.549 14.0803 458.843 13.959C459.138 13.829 459.394 13.6557 459.61 13.439C459.827 13.2223 459.996 12.971 460.117 12.685C460.247 12.3903 460.312 12.0783 460.312 11.749C460.312 11.4283 460.247 11.125 460.117 10.839C459.996 10.5443 459.823 10.2887 459.597 10.072C459.381 9.84667 459.125 9.67333 458.83 9.552C458.544 9.422 458.237 9.357 457.907 9.357Z" fill="#214E41"/>
<path d="M413.925 348.77H415.511L419.021 358H417.175L416.317 355.699H413.093L412.248 358H410.402L413.925 348.77ZM415.992 354.438L414.718 350.811L413.392 354.438H415.992ZM426.196 358H424.454V354.178C424.454 353.632 424.358 353.233 424.168 352.982C423.977 352.731 423.713 352.605 423.375 352.605C423.201 352.605 423.024 352.64 422.842 352.709C422.66 352.778 422.486 352.878 422.322 353.008C422.166 353.129 422.023 353.277 421.893 353.45C421.763 353.623 421.667 353.814 421.607 354.022V358H419.865V351.188H421.438V352.449C421.689 352.016 422.053 351.678 422.53 351.435C423.006 351.192 423.544 351.071 424.142 351.071C424.566 351.071 424.913 351.149 425.182 351.305C425.45 351.461 425.658 351.665 425.806 351.916C425.953 352.167 426.053 352.453 426.105 352.774C426.165 353.095 426.196 353.42 426.196 353.749V358ZM434.041 358H432.299V354.178C432.299 353.632 432.204 353.233 432.013 352.982C431.823 352.731 431.558 352.605 431.22 352.605C431.047 352.605 430.869 352.64 430.687 352.709C430.505 352.778 430.332 352.878 430.167 353.008C430.011 353.129 429.868 353.277 429.738 353.45C429.608 353.623 429.513 353.814 429.452 354.022V358H427.71V351.188H429.283V352.449C429.535 352.016 429.899 351.678 430.375 351.435C430.852 351.192 431.389 351.071 431.987 351.071C432.412 351.071 432.759 351.149 433.027 351.305C433.296 351.461 433.504 351.665 433.651 351.916C433.799 352.167 433.898 352.453 433.95 352.774C434.011 353.095 434.041 353.42 434.041 353.749V358ZM437.636 358.13C436.934 358.13 436.401 357.905 436.037 357.454C435.673 357.003 435.491 356.336 435.491 355.452V351.188H437.233V355.075C437.233 356.124 437.61 356.648 438.364 356.648C438.702 356.648 439.027 356.548 439.339 356.349C439.66 356.141 439.92 355.829 440.119 355.413V351.188H441.861V355.998C441.861 356.18 441.892 356.31 441.952 356.388C442.022 356.466 442.13 356.509 442.277 356.518V358C442.104 358.035 441.957 358.056 441.835 358.065C441.723 358.074 441.619 358.078 441.523 358.078C441.211 358.078 440.956 358.009 440.756 357.87C440.566 357.723 440.453 357.523 440.418 357.272L440.379 356.726C440.076 357.194 439.686 357.545 439.209 357.779C438.733 358.013 438.208 358.13 437.636 358.13ZM445.451 358.13C445.122 358.13 444.814 358.078 444.528 357.974C444.242 357.861 443.995 357.71 443.787 357.519C443.579 357.32 443.415 357.09 443.293 356.83C443.181 356.57 443.124 356.284 443.124 355.972C443.124 355.651 443.194 355.357 443.332 355.088C443.48 354.811 443.679 354.577 443.93 354.386C444.19 354.195 444.498 354.048 444.853 353.944C445.209 353.831 445.599 353.775 446.023 353.775C446.327 353.775 446.621 353.801 446.907 353.853C447.202 353.905 447.462 353.979 447.687 354.074V353.684C447.687 353.233 447.557 352.887 447.297 352.644C447.046 352.401 446.669 352.28 446.166 352.28C445.802 352.28 445.447 352.345 445.1 352.475C444.754 352.605 444.398 352.796 444.034 353.047L443.501 351.942C444.377 351.361 445.321 351.071 446.335 351.071C447.315 351.071 448.073 351.314 448.61 351.799C449.156 352.276 449.429 352.969 449.429 353.879V355.998C449.429 356.18 449.46 356.31 449.52 356.388C449.59 356.466 449.698 356.509 449.845 356.518V358C449.551 358.061 449.295 358.091 449.078 358.091C448.749 358.091 448.493 358.017 448.311 357.87C448.138 357.723 448.03 357.528 447.986 357.285L447.947 356.908C447.644 357.307 447.276 357.61 446.842 357.818C446.409 358.026 445.945 358.13 445.451 358.13ZM445.945 356.856C446.24 356.856 446.517 356.804 446.777 356.7C447.046 356.596 447.254 356.457 447.401 356.284C447.592 356.137 447.687 355.972 447.687 355.79V355.01C447.479 354.932 447.254 354.871 447.011 354.828C446.769 354.776 446.535 354.75 446.309 354.75C445.859 354.75 445.49 354.854 445.204 355.062C444.918 355.261 444.775 355.517 444.775 355.829C444.775 356.124 444.888 356.371 445.113 356.57C445.339 356.761 445.616 356.856 445.945 356.856ZM451.044 348.51H452.786V355.816C452.786 356.067 452.847 356.262 452.968 356.401C453.089 356.54 453.263 356.609 453.488 356.609C453.592 356.609 453.705 356.592 453.826 356.557C453.956 356.522 454.077 356.479 454.19 356.427L454.424 357.753C454.19 357.866 453.917 357.952 453.605 358.013C453.293 358.074 453.011 358.104 452.76 358.104C452.214 358.104 451.789 357.961 451.486 357.675C451.191 357.38 451.044 356.964 451.044 356.427V348.51ZM465.596 358V351.89L463.217 356.44H462.242L459.863 351.89V358H458.069V348.77H459.993L462.723 354.022L465.479 348.77H467.39V358H465.596ZM470.944 358.13C470.614 358.13 470.307 358.078 470.021 357.974C469.735 357.861 469.488 357.71 469.28 357.519C469.072 357.32 468.907 357.09 468.786 356.83C468.673 356.57 468.617 356.284 468.617 355.972C468.617 355.651 468.686 355.357 468.825 355.088C468.972 354.811 469.171 354.577 469.423 354.386C469.683 354.195 469.99 354.048 470.346 353.944C470.701 353.831 471.091 353.775 471.516 353.775C471.819 353.775 472.114 353.801 472.4 353.853C472.694 353.905 472.954 353.979 473.18 354.074V353.684C473.18 353.233 473.05 352.887 472.79 352.644C472.538 352.401 472.161 352.28 471.659 352.28C471.295 352.28 470.939 352.345 470.593 352.475C470.246 352.605 469.891 352.796 469.527 353.047L468.994 351.942C469.869 351.361 470.814 351.071 471.828 351.071C472.807 351.071 473.565 351.314 474.103 351.799C474.649 352.276 474.922 352.969 474.922 353.879V355.998C474.922 356.18 474.952 356.31 475.013 356.388C475.082 356.466 475.19 356.509 475.338 356.518V358C475.043 358.061 474.787 358.091 474.571 358.091C474.241 358.091 473.986 358.017 473.804 357.87C473.63 357.723 473.522 357.528 473.479 357.285L473.44 356.908C473.136 357.307 472.768 357.61 472.335 357.818C471.901 358.026 471.438 358.13 470.944 358.13ZM471.438 356.856C471.732 356.856 472.01 356.804 472.27 356.7C472.538 356.596 472.746 356.457 472.894 356.284C473.084 356.137 473.18 355.972 473.18 355.79V355.01C472.972 354.932 472.746 354.871 472.504 354.828C472.261 354.776 472.027 354.75 471.802 354.75C471.351 354.75 470.983 354.854 470.697 355.062C470.411 355.261 470.268 355.517 470.268 355.829C470.268 356.124 470.38 356.371 470.606 356.57C470.831 356.761 471.108 356.856 471.438 356.856ZM477.628 351.188L479.097 353.32L479.201 353.554L479.331 353.32L480.787 351.188H482.581L480.15 354.607L482.62 358H480.826L479.318 355.881L479.201 355.66L479.097 355.881L477.602 358H475.808L478.265 354.607L475.847 351.188H477.628Z" fill="#214E41"/>
<path d="M10 233H520V235H10V233Z" fill="#F0A446"/>
</svg>
