<svg width="179" height="25" viewBox="0 0 179 25" fill="none" xmlns="http://www.w3.org/2000/svg">
<path d="M2.246 18V8.06H6.362C6.79133 8.06 7.18333 8.15333 7.538 8.34C7.902 8.51733 8.21467 8.75533 8.476 9.054C8.73733 9.34333 8.94267 9.67467 9.092 10.048C9.24133 10.4213 9.316 10.7993 9.316 11.182C9.316 11.5927 9.246 11.9893 9.106 12.372C8.966 12.7453 8.77 13.0767 8.518 13.366C8.266 13.6553 7.96267 13.8887 7.608 14.066C7.26267 14.2433 6.87533 14.332 6.446 14.332H3.226V18H2.246ZM3.226 13.464H6.404C6.69333 13.464 6.95467 13.4033 7.188 13.282C7.43067 13.1513 7.636 12.9833 7.804 12.778C7.972 12.5633 8.10267 12.3207 8.196 12.05C8.28933 11.77 8.336 11.4807 8.336 11.182C8.336 10.874 8.28 10.5847 8.168 10.314C8.06533 10.034 7.92067 9.79133 7.734 9.586C7.55667 9.38067 7.342 9.222 7.09 9.11C6.84733 8.98867 6.59067 8.928 6.32 8.928H3.226V13.464ZM14.419 11.546C13.775 11.5647 13.215 11.742 12.739 12.078C12.263 12.414 11.927 12.876 11.731 13.464V18H10.779V10.706H11.675V12.456C11.9457 11.896 12.3097 11.4573 12.767 11.14C13.2243 10.8227 13.7143 10.664 14.237 10.664C14.3117 10.664 14.3723 10.6687 14.419 10.678V11.546ZM15.7072 18V10.706H16.6592V18H15.7072ZM15.7072 9.18V7.78H16.6592V9.18H15.7072ZM20.96 18L17.992 10.706H18.972L21.478 17.118L23.998 10.706H24.922L21.954 18H20.96ZM27.9171 18.14C27.5718 18.14 27.2498 18.084 26.9511 17.972C26.6618 17.8507 26.4051 17.6873 26.1811 17.482C25.9665 17.2767 25.7985 17.0387 25.6771 16.768C25.5558 16.488 25.4951 16.1893 25.4951 15.872C25.4951 15.5547 25.5698 15.2607 25.7191 14.99C25.8685 14.7193 26.0785 14.486 26.3491 14.29C26.6198 14.094 26.9418 13.9447 27.3151 13.842C27.6885 13.73 28.0991 13.674 28.5471 13.674C28.9205 13.674 29.2985 13.7067 29.6811 13.772C30.0638 13.8373 30.4045 13.9307 30.7031 14.052V13.394C30.7031 12.75 30.5211 12.2413 30.1571 11.868C29.7931 11.4853 29.2891 11.294 28.6451 11.294C28.2718 11.294 27.8891 11.3687 27.4971 11.518C27.1051 11.6673 26.7085 11.882 26.3071 12.162L25.9711 11.532C26.9138 10.8973 27.8285 10.58 28.7151 10.58C29.6298 10.58 30.3485 10.8367 30.8711 11.35C31.3938 11.8633 31.6551 12.5727 31.6551 13.478V16.768C31.6551 17.0293 31.7718 17.16 32.0051 17.16V18C31.8465 18.028 31.7251 18.042 31.6411 18.042C31.3985 18.042 31.2071 17.9813 31.0671 17.86C30.9365 17.7387 30.8665 17.5707 30.8571 17.356L30.8291 16.782C30.4931 17.2207 30.0685 17.5567 29.5551 17.79C29.0511 18.0233 28.5051 18.14 27.9171 18.14ZM28.1411 17.412C28.6358 17.412 29.0885 17.3187 29.4991 17.132C29.9191 16.9453 30.2365 16.698 30.4511 16.39C30.5351 16.306 30.5958 16.2173 30.6331 16.124C30.6798 16.0213 30.7031 15.928 30.7031 15.844V14.654C30.3858 14.5327 30.0545 14.4393 29.7091 14.374C29.3731 14.3087 29.0278 14.276 28.6731 14.276C28.0011 14.276 27.4551 14.416 27.0351 14.696C26.6151 14.976 26.4051 15.3447 26.4051 15.802C26.4051 16.026 26.4471 16.236 26.5311 16.432C26.6245 16.628 26.7458 16.8007 26.8951 16.95C27.0538 17.09 27.2405 17.202 27.4551 17.286C27.6698 17.37 27.8985 17.412 28.1411 17.412ZM33.228 14.332C33.228 13.8187 33.3167 13.3333 33.494 12.876C33.6714 12.4187 33.9187 12.022 34.236 11.686C34.5627 11.3407 34.95 11.07 35.398 10.874C35.846 10.678 36.3407 10.58 36.882 10.58C37.5727 10.58 38.1747 10.7387 38.688 11.056C39.2014 11.364 39.5887 11.784 39.85 12.316L38.926 12.61C38.7207 12.2367 38.4314 11.9473 38.058 11.742C37.694 11.5273 37.288 11.42 36.84 11.42C36.4667 11.42 36.1167 11.4947 35.79 11.644C35.4727 11.7933 35.1927 11.9987 34.95 12.26C34.7167 12.512 34.53 12.8153 34.39 13.17C34.2594 13.5247 34.194 13.912 34.194 14.332C34.194 14.7427 34.264 15.13 34.404 15.494C34.544 15.858 34.7354 16.1753 34.978 16.446C35.2207 16.7073 35.5007 16.9173 35.818 17.076C36.1447 17.2253 36.49 17.3 36.854 17.3C37.0874 17.3 37.316 17.2673 37.54 17.202C37.7734 17.1367 37.988 17.048 38.184 16.936C38.38 16.8147 38.548 16.6793 38.688 16.53C38.828 16.3807 38.926 16.222 38.982 16.054L39.92 16.334C39.8174 16.5953 39.668 16.838 39.472 17.062C39.276 17.2767 39.0427 17.468 38.772 17.636C38.5107 17.7947 38.2167 17.916 37.89 18C37.5727 18.0933 37.2414 18.14 36.896 18.14C36.364 18.14 35.874 18.042 35.426 17.846C34.978 17.6407 34.5907 17.3653 34.264 17.02C33.9374 16.6653 33.6807 16.2593 33.494 15.802C33.3167 15.3447 33.228 14.8547 33.228 14.332ZM41.7599 20.24C41.8346 20.2493 41.9046 20.254 41.9699 20.254C42.0446 20.2633 42.1146 20.268 42.1799 20.268C42.3479 20.268 42.4786 20.2447 42.5719 20.198C42.6746 20.1513 42.7726 20.0487 42.8659 19.89C42.9593 19.7313 43.0619 19.5027 43.1739 19.204C43.2953 18.9053 43.4633 18.504 43.6779 18L40.4999 10.706H41.4799L44.1819 17.118L46.6879 10.706H47.5979L43.8179 20.114C43.7153 20.3847 43.5426 20.618 43.2999 20.814C43.0666 21.0193 42.7446 21.122 42.3339 21.122C42.2406 21.122 42.1519 21.1173 42.0679 21.108C41.9839 21.108 41.8813 21.0987 41.7599 21.08V20.24Z" fill="white"/>
<path d="M78.302 8.928H74.76V18H73.78V8.928H70.238V8.06H78.302V8.928ZM81.1653 18.14C80.6333 18.14 80.1433 18.042 79.6953 17.846C79.2566 17.6407 78.874 17.3653 78.5473 17.02C78.2206 16.6653 77.964 16.2593 77.7773 15.802C77.6 15.3447 77.5113 14.8547 77.5113 14.332C77.5113 13.8187 77.6 13.338 77.7773 12.89C77.964 12.4327 78.216 12.036 78.5333 11.7C78.86 11.3547 79.2473 11.084 79.6953 10.888C80.1433 10.6827 80.6286 10.58 81.1513 10.58C81.6833 10.58 82.1686 10.6827 82.6073 10.888C83.0553 11.084 83.438 11.3547 83.7553 11.7C84.0726 12.0453 84.32 12.442 84.4973 12.89C84.6746 13.338 84.7633 13.814 84.7633 14.318C84.7633 14.3927 84.7633 14.4673 84.7633 14.542C84.7633 14.6167 84.7586 14.668 84.7493 14.696H78.5053C78.5333 15.088 78.622 15.452 78.7713 15.788C78.93 16.1147 79.1306 16.3993 79.3733 16.642C79.616 16.8847 79.8913 17.076 80.1993 17.216C80.5166 17.3467 80.8526 17.412 81.2073 17.412C81.4406 17.412 81.674 17.3793 81.9073 17.314C82.1406 17.2487 82.3553 17.16 82.5513 17.048C82.7473 16.936 82.9246 16.8007 83.0833 16.642C83.242 16.474 83.3633 16.292 83.4473 16.096L84.2733 16.32C84.1613 16.5907 84.0026 16.838 83.7973 17.062C83.592 17.2767 83.354 17.468 83.0833 17.636C82.8126 17.7947 82.514 17.916 82.1873 18C81.8606 18.0933 81.52 18.14 81.1653 18.14ZM83.8533 13.968C83.8253 13.576 83.732 13.2213 83.5733 12.904C83.424 12.5773 83.228 12.2973 82.9853 12.064C82.752 11.8307 82.4766 11.6487 82.1593 11.518C81.8513 11.3873 81.52 11.322 81.1653 11.322C80.8106 11.322 80.4746 11.3873 80.1573 11.518C79.84 11.6487 79.56 11.8307 79.3173 12.064C79.084 12.2973 78.8926 12.5773 78.7433 12.904C78.6033 13.2307 78.5193 13.5853 78.4913 13.968H83.8533ZM89.8921 11.546C89.2481 11.5647 88.6881 11.742 88.2121 12.078C87.7361 12.414 87.4001 12.876 87.2041 13.464V18H86.2521V10.706H87.1481V12.456C87.4188 11.896 87.7828 11.4573 88.2401 11.14C88.6974 10.8227 89.1874 10.664 89.7101 10.664C89.7848 10.664 89.8454 10.6687 89.8921 10.678V11.546ZM102.03 18H101.078V13.926C101.078 13.0767 100.943 12.4513 100.672 12.05C100.402 11.6487 100 11.448 99.4683 11.448C99.1883 11.448 98.9223 11.4993 98.6703 11.602C98.4276 11.7047 98.199 11.8493 97.9843 12.036C97.779 12.2227 97.597 12.4467 97.4383 12.708C97.2796 12.96 97.1583 13.24 97.0743 13.548V18H96.1223V13.926C96.1223 13.058 95.9916 12.428 95.7303 12.036C95.469 11.644 95.0676 11.448 94.5263 11.448C93.9756 11.448 93.4856 11.6393 93.0563 12.022C92.627 12.4047 92.319 12.9087 92.1323 13.534V18H91.1803V10.706H92.0483V12.358C92.347 11.798 92.739 11.364 93.2243 11.056C93.7096 10.7387 94.2463 10.58 94.8343 10.58C95.4503 10.58 95.9403 10.7527 96.3043 11.098C96.6776 11.4433 96.9063 11.896 96.9903 12.456C97.6716 11.2053 98.6096 10.58 99.8043 10.58C100.215 10.58 100.56 10.6547 100.84 10.804C101.13 10.9533 101.358 11.168 101.526 11.448C101.704 11.7187 101.83 12.05 101.904 12.442C101.988 12.8247 102.03 13.254 102.03 13.73V18ZM106.488 18.14C105.918 18.14 105.363 18.0467 104.822 17.86C104.28 17.6733 103.814 17.4027 103.422 17.048L103.856 16.404C104.266 16.74 104.682 16.992 105.102 17.16C105.531 17.328 105.988 17.412 106.474 17.412C107.062 17.412 107.528 17.2953 107.874 17.062C108.228 16.8193 108.406 16.4787 108.406 16.04C108.406 15.8347 108.359 15.6667 108.266 15.536C108.172 15.396 108.032 15.2747 107.846 15.172C107.668 15.0693 107.44 14.9807 107.16 14.906C106.889 14.822 106.572 14.738 106.208 14.654C105.788 14.5513 105.424 14.4487 105.116 14.346C104.808 14.2433 104.551 14.1267 104.346 13.996C104.15 13.8653 104 13.7067 103.898 13.52C103.804 13.324 103.758 13.0813 103.758 12.792C103.758 12.428 103.828 12.106 103.968 11.826C104.117 11.546 104.313 11.3173 104.556 11.14C104.808 10.9533 105.097 10.8133 105.424 10.72C105.76 10.6267 106.114 10.58 106.488 10.58C107.048 10.58 107.556 10.6733 108.014 10.86C108.471 11.0373 108.84 11.2753 109.12 11.574L108.658 12.134C108.387 11.854 108.056 11.644 107.664 11.504C107.281 11.364 106.88 11.294 106.46 11.294C106.208 11.294 105.974 11.322 105.76 11.378C105.545 11.4247 105.354 11.504 105.186 11.616C105.027 11.728 104.901 11.8727 104.808 12.05C104.714 12.218 104.668 12.4187 104.668 12.652C104.668 12.848 104.7 13.0067 104.766 13.128C104.831 13.2493 104.938 13.3567 105.088 13.45C105.237 13.534 105.424 13.6133 105.648 13.688C105.881 13.7533 106.161 13.8233 106.488 13.898C106.954 14.01 107.365 14.122 107.72 14.234C108.074 14.346 108.368 14.4767 108.602 14.626C108.844 14.7753 109.026 14.9573 109.148 15.172C109.269 15.3867 109.33 15.648 109.33 15.956C109.33 16.628 109.073 17.16 108.56 17.552C108.046 17.944 107.356 18.14 106.488 18.14ZM117.604 18.14C117.072 18.14 116.587 18.042 116.148 17.846C115.71 17.6407 115.327 17.3653 115 17.02C114.683 16.6747 114.436 16.2733 114.258 15.816C114.081 15.3587 113.992 14.878 113.992 14.374C113.992 13.8607 114.081 13.3753 114.258 12.918C114.445 12.4607 114.697 12.0593 115.014 11.714C115.341 11.3687 115.724 11.0933 116.162 10.888C116.601 10.6827 117.082 10.58 117.604 10.58C118.127 10.58 118.608 10.6827 119.046 10.888C119.494 11.0933 119.877 11.3687 120.194 11.714C120.521 12.0593 120.773 12.4607 120.95 12.918C121.137 13.3753 121.23 13.8607 121.23 14.374C121.23 14.878 121.142 15.3587 120.964 15.816C120.787 16.2733 120.535 16.6747 120.208 17.02C119.891 17.3653 119.508 17.6407 119.06 17.846C118.622 18.042 118.136 18.14 117.604 18.14ZM114.958 14.388C114.958 14.7987 115.028 15.1813 115.168 15.536C115.308 15.8813 115.495 16.1893 115.728 16.46C115.971 16.7213 116.251 16.9267 116.568 17.076C116.895 17.2253 117.24 17.3 117.604 17.3C117.968 17.3 118.309 17.2253 118.626 17.076C118.953 16.9173 119.238 16.7073 119.48 16.446C119.723 16.1753 119.914 15.8627 120.054 15.508C120.194 15.1533 120.264 14.7707 120.264 14.36C120.264 13.9587 120.194 13.5807 120.054 13.226C119.914 12.862 119.723 12.5493 119.48 12.288C119.238 12.0173 118.953 11.8073 118.626 11.658C118.309 11.4993 117.968 11.42 117.604 11.42C117.24 11.42 116.9 11.4993 116.582 11.658C116.265 11.8073 115.985 12.0173 115.742 12.288C115.5 12.5587 115.308 12.876 115.168 13.24C115.028 13.5947 114.958 13.9773 114.958 14.388ZM123.083 18V11.462H122.075V10.706H123.083V10.51C123.083 9.614 123.274 8.914 123.657 8.41C124.04 7.89667 124.562 7.64 125.225 7.64C125.514 7.64 125.794 7.682 126.065 7.766C126.336 7.85 126.569 7.962 126.765 8.102L126.471 8.788C126.34 8.68533 126.177 8.606 125.981 8.55C125.794 8.494 125.603 8.466 125.407 8.466C124.959 8.466 124.618 8.63867 124.385 8.984C124.152 9.32933 124.035 9.82867 124.035 10.482V10.706H126.051V11.462H124.035V18H123.083ZM136.668 9.922C136.388 9.60467 136.014 9.348 135.548 9.152C135.081 8.956 134.549 8.858 133.952 8.858C133.074 8.858 132.435 9.026 132.034 9.362C131.632 9.68867 131.432 10.1367 131.432 10.706C131.432 11.0047 131.483 11.252 131.586 11.448C131.698 11.6347 131.866 11.798 132.09 11.938C132.314 12.078 132.598 12.1993 132.944 12.302C133.298 12.4047 133.714 12.5073 134.19 12.61C134.722 12.722 135.198 12.848 135.618 12.988C136.047 13.128 136.411 13.3053 136.71 13.52C137.008 13.7253 137.237 13.9773 137.396 14.276C137.554 14.5747 137.634 14.948 137.634 15.396C137.634 15.8533 137.545 16.25 137.368 16.586C137.19 16.922 136.943 17.202 136.626 17.426C136.308 17.65 135.93 17.818 135.492 17.93C135.053 18.0327 134.572 18.084 134.05 18.084C132.51 18.084 131.18 17.6033 130.06 16.642L130.55 15.844C130.727 16.0307 130.937 16.208 131.18 16.376C131.432 16.544 131.707 16.6933 132.006 16.824C132.314 16.9453 132.64 17.0433 132.986 17.118C133.331 17.1833 133.695 17.216 134.078 17.216C134.871 17.216 135.487 17.076 135.926 16.796C136.374 16.5067 136.598 16.0727 136.598 15.494C136.598 15.186 136.532 14.9293 136.402 14.724C136.28 14.5093 136.094 14.3273 135.842 14.178C135.59 14.0193 135.277 13.884 134.904 13.772C134.53 13.66 134.096 13.548 133.602 13.436C133.079 13.3147 132.622 13.1887 132.23 13.058C131.838 12.9273 131.506 12.764 131.236 12.568C130.965 12.372 130.76 12.1387 130.62 11.868C130.489 11.588 130.424 11.2473 130.424 10.846C130.424 10.3887 130.508 9.98267 130.676 9.628C130.853 9.264 131.1 8.96533 131.418 8.732C131.735 8.48933 132.108 8.30733 132.538 8.186C132.967 8.05533 133.443 7.99 133.966 7.99C134.628 7.99 135.216 8.09267 135.73 8.298C136.252 8.494 136.724 8.774 137.144 9.138L136.668 9.922ZM142.336 18.14C141.804 18.14 141.314 18.042 140.866 17.846C140.427 17.6407 140.044 17.3653 139.718 17.02C139.391 16.6653 139.134 16.2593 138.948 15.802C138.77 15.3447 138.682 14.8547 138.682 14.332C138.682 13.8187 138.77 13.338 138.948 12.89C139.134 12.4327 139.386 12.036 139.704 11.7C140.03 11.3547 140.418 11.084 140.866 10.888C141.314 10.6827 141.799 10.58 142.322 10.58C142.854 10.58 143.339 10.6827 143.778 10.888C144.226 11.084 144.608 11.3547 144.926 11.7C145.243 12.0453 145.49 12.442 145.668 12.89C145.845 13.338 145.934 13.814 145.934 14.318C145.934 14.3927 145.934 14.4673 145.934 14.542C145.934 14.6167 145.929 14.668 145.92 14.696H139.676C139.704 15.088 139.792 15.452 139.942 15.788C140.1 16.1147 140.301 16.3993 140.544 16.642C140.786 16.8847 141.062 17.076 141.37 17.216C141.687 17.3467 142.023 17.412 142.378 17.412C142.611 17.412 142.844 17.3793 143.078 17.314C143.311 17.2487 143.526 17.16 143.722 17.048C143.918 16.936 144.095 16.8007 144.254 16.642C144.412 16.474 144.534 16.292 144.618 16.096L145.444 16.32C145.332 16.5907 145.173 16.838 144.968 17.062C144.762 17.2767 144.524 17.468 144.254 17.636C143.983 17.7947 143.684 17.916 143.358 18C143.031 18.0933 142.69 18.14 142.336 18.14ZM145.024 13.968C144.996 13.576 144.902 13.2213 144.744 12.904C144.594 12.5773 144.398 12.2973 144.156 12.064C143.922 11.8307 143.647 11.6487 143.33 11.518C143.022 11.3873 142.69 11.322 142.336 11.322C141.981 11.322 141.645 11.3873 141.328 11.518C141.01 11.6487 140.73 11.8307 140.488 12.064C140.254 12.2973 140.063 12.5773 139.914 12.904C139.774 13.2307 139.69 13.5853 139.662 13.968H145.024ZM151.062 11.546C150.418 11.5647 149.858 11.742 149.382 12.078C148.906 12.414 148.57 12.876 148.374 13.464V18H147.422V10.706H148.318V12.456C148.589 11.896 148.953 11.4573 149.41 11.14C149.868 10.8227 150.358 10.664 150.88 10.664C150.955 10.664 151.016 10.6687 151.062 10.678V11.546ZM154.535 18L151.567 10.706H152.547L155.053 17.118L157.573 10.706H158.497L155.529 18H154.535ZM159.835 18V10.706H160.787V18H159.835ZM159.835 9.18V7.78H160.787V9.18H159.835ZM162.4 14.332C162.4 13.8187 162.489 13.3333 162.666 12.876C162.844 12.4187 163.091 12.022 163.408 11.686C163.735 11.3407 164.122 11.07 164.57 10.874C165.018 10.678 165.513 10.58 166.054 10.58C166.745 10.58 167.347 10.7387 167.86 11.056C168.374 11.364 168.761 11.784 169.022 12.316L168.098 12.61C167.893 12.2367 167.604 11.9473 167.23 11.742C166.866 11.5273 166.46 11.42 166.012 11.42C165.639 11.42 165.289 11.4947 164.962 11.644C164.645 11.7933 164.365 11.9987 164.122 12.26C163.889 12.512 163.702 12.8153 163.562 13.17C163.432 13.5247 163.366 13.912 163.366 14.332C163.366 14.7427 163.436 15.13 163.576 15.494C163.716 15.858 163.908 16.1753 164.15 16.446C164.393 16.7073 164.673 16.9173 164.99 17.076C165.317 17.2253 165.662 17.3 166.026 17.3C166.26 17.3 166.488 17.2673 166.712 17.202C166.946 17.1367 167.16 17.048 167.356 16.936C167.552 16.8147 167.72 16.6793 167.86 16.53C168 16.3807 168.098 16.222 168.154 16.054L169.092 16.334C168.99 16.5953 168.84 16.838 168.644 17.062C168.448 17.2767 168.215 17.468 167.944 17.636C167.683 17.7947 167.389 17.916 167.062 18C166.745 18.0933 166.414 18.14 166.068 18.14C165.536 18.14 165.046 18.042 164.598 17.846C164.15 17.6407 163.763 17.3653 163.436 17.02C163.11 16.6653 162.853 16.2593 162.666 15.802C162.489 15.3447 162.4 14.8547 162.4 14.332ZM173.689 18.14C173.157 18.14 172.667 18.042 172.219 17.846C171.781 17.6407 171.398 17.3653 171.071 17.02C170.745 16.6653 170.488 16.2593 170.301 15.802C170.124 15.3447 170.035 14.8547 170.035 14.332C170.035 13.8187 170.124 13.338 170.301 12.89C170.488 12.4327 170.74 12.036 171.057 11.7C171.384 11.3547 171.771 11.084 172.219 10.888C172.667 10.6827 173.153 10.58 173.675 10.58C174.207 10.58 174.693 10.6827 175.131 10.888C175.579 11.084 175.962 11.3547 176.279 11.7C176.597 12.0453 176.844 12.442 177.021 12.89C177.199 13.338 177.287 13.814 177.287 14.318C177.287 14.3927 177.287 14.4673 177.287 14.542C177.287 14.6167 177.283 14.668 177.273 14.696H171.029C171.057 15.088 171.146 15.452 171.295 15.788C171.454 16.1147 171.655 16.3993 171.897 16.642C172.14 16.8847 172.415 17.076 172.723 17.216C173.041 17.3467 173.377 17.412 173.731 17.412C173.965 17.412 174.198 17.3793 174.431 17.314C174.665 17.2487 174.879 17.16 175.075 17.048C175.271 16.936 175.449 16.8007 175.607 16.642C175.766 16.474 175.887 16.292 175.971 16.096L176.797 16.32C176.685 16.5907 176.527 16.838 176.321 17.062C176.116 17.2767 175.878 17.468 175.607 17.636C175.337 17.7947 175.038 17.916 174.711 18C174.385 18.0933 174.044 18.14 173.689 18.14ZM176.377 13.968C176.349 13.576 176.256 13.2213 176.097 12.904C175.948 12.5773 175.752 12.2973 175.509 12.064C175.276 11.8307 175.001 11.6487 174.683 11.518C174.375 11.3873 174.044 11.322 173.689 11.322C173.335 11.322 172.999 11.3873 172.681 11.518C172.364 11.6487 172.084 11.8307 171.841 12.064C171.608 12.2973 171.417 12.5773 171.267 12.904C171.127 13.2307 171.043 13.5853 171.015 13.968H176.377Z" fill="white"/>
<rect x="59.6719" y="0.859375" width="1" height="24" fill="white"/>
</svg>
